<svg width="57" height="60" viewBox="0 0 57 60" fill="none" xmlns="http://www.w3.org/2000/svg">
<path d="M17.8125 41.25V52.5C17.8125 56.0362 17.8125 57.8025 16.7687 58.9013C15.7249 60 14.0469 60 10.6875 60H7.125C3.76556 60 2.08763 60 1.04381 58.9013C7.62696e-07 57.8025 0 56.0362 0 52.5V48.75C0 45.2137 7.62696e-07 43.4475 1.04381 42.3487C2.08763 41.25 3.76556 41.25 7.125 41.25H17.8125ZM17.8125 41.25L39.1875 18.75M39.1875 18.75V7.5C39.1875 3.96375 39.1875 2.1975 40.2313 1.09875C41.2751 8.09723e-07 42.9531 0 46.3125 0H49.875C53.2344 0 54.9124 8.09723e-07 55.9562 1.09875C57 2.1975 57 3.96375 57 7.5V11.25C57 14.7862 57 16.5525 55.9562 17.6512C54.9124 18.75 53.2344 18.75 49.875 18.75H39.1875Z" stroke="#A41212" stroke-width="3"/>
</svg>
