<svg width="70" height="79" viewBox="0 0 70 79" fill="none" xmlns="http://www.w3.org/2000/svg">
<path d="M0 65.7142C0 68.038 0.819442 70.2666 2.27806 71.9098C3.73667 73.553 5.71498 74.4761 7.77778 74.4761C9.84057 74.4761 11.8189 73.553 13.2775 71.9098C14.7361 70.2666 15.5556 68.038 15.5556 65.7142C15.5556 63.3904 14.7361 61.1618 13.2775 59.5186C11.8189 57.8754 9.84057 56.9523 7.77778 56.9523C5.71498 56.9523 3.73667 57.8754 2.27806 59.5186C0.819442 61.1618 0 63.3904 0 65.7142ZM54.4444 13.1428C54.4444 15.4666 55.2639 17.6952 56.7225 19.3384C58.1811 20.9815 60.1594 21.9047 62.2222 21.9047C64.285 21.9047 66.2633 20.9815 67.7219 19.3384C69.1806 17.6952 70 15.4666 70 13.1428C70 10.819 69.1806 8.59034 67.7219 6.94716C66.2633 5.30399 64.285 4.38086 62.2222 4.38086C60.1594 4.38086 58.1811 5.30399 56.7225 6.94716C55.2639 8.59034 54.4444 10.819 54.4444 13.1428Z" stroke="#A41212" stroke-width="3" stroke-linecap="round" stroke-linejoin="round"/>
<path d="M62.2218 21.9048V43.8095C62.2218 49.619 60.1732 55.1906 56.5266 59.2985C52.8801 63.4065 47.9343 65.7143 42.7773 65.7143H31.1107M31.1107 65.7143L42.7773 52.5714M31.1107 65.7143L42.7773 78.8572M7.77734 56.9524V35.0476C7.77734 29.2381 9.82595 23.6666 13.4725 19.5586C17.119 15.4507 22.0648 13.1429 27.2218 13.1429H38.8885M38.8885 13.1429L27.2218 0M38.8885 13.1429L27.2218 26.2857" stroke="#A41212" stroke-width="3" stroke-linecap="round" stroke-linejoin="round"/>
</svg>
