<svg width="1565" height="761" viewBox="0 0 1565 761" fill="none" xmlns="http://www.w3.org/2000/svg">
<g opacity="0.28">
<path d="M39.077 582.869C38.5521 586.161 38.0272 589.452 37.5023 592.744C57.4658 595.739 79.2122 598.447 99.4463 600.723C210.948 612.783 324.206 619.295 436.341 608.084C492.12 601.766 549.23 591.979 598.881 563.866C651.58 538.237 674.343 470.755 651.739 417.158C628.143 350.172 617.797 254.097 690.116 216.764C758.606 184.126 843.166 210.381 897.468 260.317C912.564 274.574 925.361 291.432 934.103 310.343C925.514 291.363 912.834 274.37 897.813 259.955C843.714 209.508 759.228 182.092 689.058 214.717C614.557 252.518 624.614 350.924 647.841 418.455C669.232 471.553 647.355 534.299 596.146 559.146C547.652 586.133 491.005 595.524 435.65 601.315C324.31 611.556 211.466 604.192 100.544 591.286C80.4415 588.859 58.7131 585.982 39.077 582.869Z" fill="black" fill-opacity="0.61"/>
<path d="M1532.46 165.737C1533.01 162.45 1533.57 159.164 1534.12 155.877C1515.75 152.959 1496.21 150.385 1477.48 148.151C1373.89 136.268 1268.37 130.006 1164.06 140.907C1112.07 146.965 1059.29 156.696 1012.81 182.52C965.018 206.281 936.09 263.47 949.81 316.085C962.048 379.017 964.999 458.803 907.681 498.845C849.655 535.725 771.956 506.762 727.74 459.032C714.778 445.154 703.964 429.231 696.026 411.938C703.812 429.3 714.498 445.343 727.373 459.371C771.305 507.533 849.054 537.858 908.921 500.729C968.102 460.021 965.483 378.817 953.748 315.321C941.069 263.626 968.826 210.201 1015.46 187.208C1060.92 162.439 1113.21 153.154 1164.77 147.625C1268.27 137.716 1373.35 144.843 1476.32 157.58C1494.91 159.963 1514.43 162.706 1532.46 165.737Z" fill="black" fill-opacity="0.61"/>
</g>
</svg>
