<svg width="14" viewBox="0 0 14 0" fill="none" xmlns="http://www.w3.org/2000/svg">
<path d="M1.32974e-08 -1C-0.552285 -1 -1 -0.552285 -1 -1.32974e-08C-1 0.552285 -0.552285 1 -1.32974e-08 1L0 0L1.32974e-08 -1ZM14.7071 0.707107C15.0976 0.316583 15.0976 -0.316582 14.7071 -0.707107L8.34315 -7.07107C7.95262 -7.46159 7.31946 -7.46159 6.92893 -7.07107C6.53841 -6.68054 6.53841 -6.04738 6.92893 -5.65685L12.5858 1.67359e-07L6.92893 5.65685C6.53841 6.04738 6.53841 6.68054 6.92893 7.07107C7.31946 7.46159 7.95262 7.46159 8.34315 7.07107L14.7071 0.707107ZM0 0L-1.32974e-08 1L14 1L14 1.86164e-07L14 -1L1.32974e-08 -1L0 0Z" fill="#F9EDCF"/>
</svg>
