<svg width="1550" height="349" viewBox="0 0 1550 349" fill="none" xmlns="http://www.w3.org/2000/svg">
<g filter="url(#filter0_d_357_176)">
<path d="M1534.13 0C1534.13 0.552193 1534.58 0.999851 1535.13 1H1545C1547.21 1 1549 2.79085 1549 5V15.5938C1549 16.146 1549.45 16.5938 1550 16.5938V35.7812C1549.45 35.7812 1549 36.229 1549 36.7812V57.9688C1549 58.521 1549.45 58.9688 1550 58.9688V78.1562C1549.45 78.1562 1549 78.604 1549 79.1562V100.344C1549 100.896 1549.45 101.344 1550 101.344V120.531C1549.45 120.531 1549 120.979 1549 121.531V142.719C1549 143.271 1549.45 143.719 1550 143.719V162.906C1549.45 162.906 1549 163.354 1549 163.906V185.094C1549 185.646 1549.45 186.094 1550 186.094V205.281C1549.45 205.281 1549 205.729 1549 206.281V227.469C1549 228.021 1549.45 228.469 1550 228.469V247.656C1549.45 247.656 1549 248.104 1549 248.656V269.844C1549 270.396 1549.45 270.844 1550 270.844V290.031C1549.45 290.031 1549 290.479 1549 291.031V312.219C1549 312.771 1549.45 313.219 1550 313.219V332.406C1549.45 332.406 1549 332.854 1549 333.406V344C1549 346.209 1547.21 348 1545 348H1535.13C1534.57 348 1534.13 348.448 1534.13 349H1516.38C1516.38 348.448 1515.94 348 1515.38 348H1495.64C1495.09 348 1494.64 348.448 1494.64 349H1476.9C1476.9 348.448 1476.45 348 1475.9 348H1456.15C1455.6 348 1455.15 348.448 1455.15 349H1437.41C1437.41 348.448 1436.96 348 1436.41 348H1416.67C1416.11 348 1415.67 348.448 1415.67 349H1397.92C1397.92 348.448 1397.47 348 1396.92 348H1377.18C1376.63 348 1376.18 348.448 1376.18 349H1358.43C1358.43 348.448 1357.99 348 1357.43 348H1337.69C1337.14 348 1336.69 348.448 1336.69 349H1318.95C1318.95 348.448 1318.5 348 1317.95 348H1298.2C1297.65 348 1297.2 348.448 1297.2 349H1279.46C1279.46 348.448 1279.01 348 1278.46 348H1258.72C1258.16 348 1257.72 348.448 1257.72 349H1239.97C1239.97 348.448 1239.53 348 1238.97 348H1219.23C1218.68 348 1218.23 348.448 1218.23 349H1200.49C1200.49 348.448 1200.04 348 1199.49 348H1179.74C1179.19 348 1178.74 348.448 1178.74 349H1161C1161 348.448 1160.55 348 1160 348H1140.26C1139.7 348 1139.26 348.448 1139.26 349H1121.51C1121.51 348.448 1121.06 348 1120.51 348H1100.77C1100.22 348 1099.77 348.448 1099.77 349H1082.03C1082.03 348.448 1081.58 348 1081.03 348H1061.28C1060.73 348 1060.28 348.448 1060.28 349H1042.54C1042.54 348.448 1042.09 348 1041.54 348H1021.79C1021.24 348 1020.79 348.448 1020.79 349H1003.05C1003.05 348.448 1002.6 348 1002.05 348H982.308C981.755 348 981.308 348.448 981.308 349H963.564C963.564 348.448 963.117 348 962.564 348H942.82C942.268 348 941.82 348.448 941.82 349H924.077C924.077 348.448 923.629 348 923.077 348H903.333C902.781 348 902.333 348.448 902.333 349H884.59C884.59 348.448 884.142 348 883.59 348H863.847C863.294 348 862.847 348.448 862.847 349H845.103C845.103 348.448 844.655 348 844.103 348H824.359C823.807 348 823.359 348.448 823.359 349H805.615C805.615 348.448 805.168 348 804.615 348H784.872C784.32 348 783.872 348.448 783.872 349H766.128C766.128 348.448 765.68 348 765.128 348H745.385C744.832 348 744.385 348.448 744.385 349H726.641C726.641 348.448 726.193 348 725.641 348H705.897C705.345 348 704.897 348.448 704.897 349H687.154C687.154 348.448 686.706 348 686.154 348H666.41C665.858 348 665.41 348.448 665.41 349H647.667C647.667 348.448 647.219 348 646.667 348H626.923C626.371 348 625.923 348.448 625.923 349H608.18C608.18 348.448 607.732 348 607.18 348H587.436C586.883 348 586.436 348.448 586.436 349H568.692C568.692 348.448 568.245 348 567.692 348H547.948C547.396 348 546.948 348.448 546.948 349H529.205C529.205 348.448 528.757 348 528.205 348H508.462C507.91 348 507.462 348.448 507.462 349H489.718C489.718 348.448 489.27 348 488.718 348H468.975C468.422 348 467.975 348.448 467.975 349H450.23C450.23 348.448 449.783 348 449.23 348H429.487C428.935 348 428.487 348.448 428.487 349H410.743C410.743 348.448 410.295 348 409.743 348H390C389.448 348 389 348.448 389 349H371.257C371.257 348.448 370.809 348 370.257 348H350.513C349.96 348 349.513 348.448 349.513 349H331.77C331.77 348.448 331.322 348 330.77 348H311.025C310.473 348 310.025 348.448 310.025 349H292.282C292.282 348.448 291.834 348 291.282 348H271.538C270.986 348 270.538 348.448 270.538 349H252.795C252.795 348.448 252.347 348 251.795 348H232.052C231.499 348 231.052 348.448 231.052 349H213.308C213.308 348.448 212.86 348 212.308 348H192.564C192.012 348 191.564 348.448 191.564 349H173.82C173.82 348.448 173.373 348 172.82 348H153.077C152.525 348 152.077 348.448 152.077 349H134.333C134.333 348.448 133.885 348 133.333 348H113.59C113.038 348 112.59 348.448 112.59 349H94.8457C94.8457 348.448 94.398 348 93.8457 348H74.1025C73.5503 348 73.1025 348.448 73.1025 349H55.3594C55.3594 348.448 54.9115 348 54.3594 348H34.6152C34.063 348 33.6152 348.448 33.6152 349H15.8721C15.8721 348.448 15.4242 348 14.8721 348H5C2.79086 348 1 346.209 1 344V333.406C1 332.854 0.552285 332.406 0 332.406V313.219C0.517677 313.219 0.943785 312.825 0.995117 312.321L1 312.219V291.031C1 290.479 0.552285 290.031 0 290.031V270.844C0.517676 270.844 0.943785 270.45 0.995117 269.946L1 269.844V248.656C1 248.104 0.552285 247.656 0 247.656V228.469C0.517676 228.469 0.943785 228.075 0.995117 227.571L1 227.469V206.281C1 205.729 0.552285 205.281 0 205.281V186.094C0.517676 186.094 0.943784 185.7 0.995117 185.196L1 185.094V163.906C1 163.354 0.552285 162.906 0 162.906V143.719C0.517676 143.719 0.943784 143.325 0.995117 142.821L1 142.719V121.531C1 120.979 0.552285 120.531 0 120.531V101.344C0.517675 101.344 0.943784 100.95 0.995117 100.446L1 100.344V79.1562C1 78.604 0.552285 78.1562 0 78.1562V58.9688C0.517675 58.9688 0.943784 58.5754 0.995117 58.0713L1 57.9688V36.7812C1 36.229 0.552285 35.7812 0 35.7812V16.5938C0.517675 16.5938 0.943783 16.2004 0.995117 15.6963L1 15.5938V5C1 2.79086 2.79086 1 5 1H14.873C15.4253 1 15.873 0.552285 15.873 0H33.6172C33.6172 0.552285 34.0649 1 34.6172 1H54.3604C54.878 0.999987 55.3041 0.606661 55.3555 0.102539L55.3604 0H73.1035C73.1035 0.552167 73.5514 0.99981 74.1035 1H93.8477C94.3652 0.999876 94.7904 0.606554 94.8418 0.102539L94.8477 0H112.591C112.591 0.55224 113.039 0.999928 113.591 1H133.335C133.852 0.999765 134.278 0.606493 134.329 0.102539L134.335 0H152.078C152.078 0.552285 152.526 1 153.078 1H172.821C173.374 1 173.821 0.552285 173.821 0H191.565C191.565 0.552285 192.013 1 192.565 1H212.309C212.826 0.99999 213.252 0.606663 213.304 0.102539L213.309 0H231.052C231.052 0.552165 231.5 0.999806 232.052 1H251.796C252.313 0.999879 252.739 0.606556 252.79 0.102539L252.796 0H270.539C270.539 0.552238 270.987 0.999924 271.539 1H291.283C291.801 0.999768 292.226 0.606495 292.277 0.102539L292.283 0H310.026C310.026 0.552285 310.474 1 311.026 1H330.77C331.322 1 331.77 0.552285 331.77 0H349.514C349.514 0.552285 349.961 1 350.514 1H370.257C370.775 0.999994 371.201 0.606665 371.252 0.102539L371.257 0H389C389 0.552162 389.448 0.999802 390 1H409.744C410.262 0.999883 410.687 0.606558 410.738 0.102539L410.744 0H428.487C428.487 0.552235 428.935 0.99992 429.487 1H449.231C449.749 0.999772 450.174 0.606497 450.226 0.102539L450.231 0H467.975C467.975 0.552285 468.422 1 468.975 1H488.718C489.27 1 489.718 0.552285 489.718 0H507.462C507.462 0.552285 507.91 1 508.462 1H528.205C528.723 0.999998 529.149 0.606668 529.2 0.102539L529.205 0H546.948C546.948 0.552129 547.396 0.999748 547.948 1H567.692C568.21 0.999933 568.636 0.606632 568.688 0.102539L568.692 0H586.436C586.436 0.552172 586.883 0.999817 587.436 1H607.18C607.697 0.999869 608.122 0.60655 608.174 0.102539L608.18 0H625.923C625.923 0.552214 626.371 0.999886 626.923 1H646.667C647.184 0.999804 647.61 0.606515 647.661 0.102539L647.667 0H665.41C665.41 0.552257 665.858 0.999955 666.41 1H686.153C686.706 1 687.153 0.552285 687.153 0H704.897C704.897 0.552285 705.345 1 705.897 1H725.641C726.193 1 726.641 0.552285 726.641 0H744.385C744.385 0.552285 744.832 1 745.385 1H765.128C765.68 1 766.128 0.552285 766.128 0H783.872C783.872 0.552285 784.32 1 784.872 1H804.615C805.168 1 805.615 0.552285 805.615 0H823.359C823.359 0.552285 823.807 1 824.359 1H844.103C844.62 0.999999 845.046 0.606668 845.098 0.102539L845.103 0H862.846C862.846 0.552144 863.294 0.999772 863.846 1H883.59C884.107 0.999934 884.534 0.606633 884.585 0.102539L884.59 0H902.333C902.333 0.552186 902.781 0.999841 903.333 1H923.077C923.595 0.99987 924.02 0.60655 924.071 0.102539L924.077 0H941.82C941.82 0.552229 942.268 0.99991 942.82 1H962.564C963.082 0.999805 963.507 0.606515 963.559 0.102539L963.564 0H981.308C981.308 0.552271 981.755 0.999978 982.308 1H1002.05C1002.57 0.999764 1002.99 0.606493 1003.05 0.102539L1003.05 0H1020.79C1020.79 0.552285 1021.24 1 1021.79 1H1041.54C1042.09 1 1042.54 0.552285 1042.54 0H1060.28C1060.28 0.552285 1060.73 1 1061.28 1H1081.03C1081.58 1 1082.03 0.552285 1082.03 0H1099.77C1099.77 0.552285 1100.22 1 1100.77 1H1120.51C1121.06 1 1121.51 0.552285 1121.51 0H1139.26C1139.26 0.552285 1139.7 1 1140.26 1H1160C1160.55 1 1161 0.552285 1161 0H1178.74C1178.74 0.552143 1179.19 0.999771 1179.74 1H1199.49C1200 0.999935 1200.43 0.606633 1200.48 0.102539L1200.49 0H1218.23C1218.23 0.552186 1218.68 0.99984 1219.23 1H1238.97C1239.49 0.999871 1239.92 0.606551 1239.97 0.102539L1239.97 0H1257.72C1257.72 0.552221 1258.17 0.999896 1258.72 1H1278.46C1278.98 0.999818 1279.4 0.606522 1279.46 0.102539L1279.46 0H1297.21C1297.21 0.552271 1297.65 0.999977 1298.21 1H1317.95C1318.5 1 1318.95 0.552285 1318.95 0H1336.69C1336.69 0.517706 1337.09 0.943825 1337.59 0.995117L1337.69 1H1357.44C1357.99 1 1358.44 0.552285 1358.44 0H1376.18C1376.18 0.517745 1376.57 0.943878 1377.08 0.995117L1377.18 1H1396.92C1397.48 1 1397.92 0.552285 1397.92 0H1415.67C1415.67 0.552285 1416.11 1 1416.67 1H1436.41C1436.96 1 1437.41 0.552285 1437.41 0H1455.15C1455.15 0.552285 1455.6 1 1456.15 1H1475.9C1476.42 0.999989 1476.84 0.606663 1476.89 0.102539L1476.9 0H1494.64C1494.64 0.55215 1495.09 0.999782 1495.64 1H1515.38C1515.9 0.999925 1516.33 0.606628 1516.38 0.102539L1516.38 0H1534.13Z" stroke="white" stroke-width="2" stroke-linecap="round" stroke-linejoin="round" stroke-dasharray="20 20" shape-rendering="crispEdges"/>
</g>
<defs>
<filter id="filter0_d_357_176" x="-6.2" y="-8.2" width="1562.4" height="361.4" filterUnits="userSpaceOnUse" color-interpolation-filters="sRGB">
<feFlood flood-opacity="0" result="BackgroundImageFix"/>
<feColorMatrix in="SourceAlpha" type="matrix" values="0 0 0 0 0 0 0 0 0 0 0 0 0 0 0 0 0 0 127 0" result="hardAlpha"/>
<feOffset dy="-2"/>
<feGaussianBlur stdDeviation="3.1"/>
<feComposite in2="hardAlpha" operator="out"/>
<feColorMatrix type="matrix" values="0 0 0 0 0 0 0 0 0 0 0 0 0 0 0 0 0 0 0.45 0"/>
<feBlend mode="normal" in2="BackgroundImageFix" result="effect1_dropShadow_357_176"/>
<feBlend mode="normal" in="SourceGraphic" in2="effect1_dropShadow_357_176" result="shape"/>
</filter>
</defs>
</svg>
