<svg width="322" height="326" viewBox="0 0 322 326" fill="none" xmlns="http://www.w3.org/2000/svg">
<g filter="url(#filter0_d_357_188)">
<rect y="75" width="322" height="189" rx="7" fill="#A41212"/>
<rect x="0.25" y="75.25" width="321.5" height="188.5" rx="6.75" stroke="white" stroke-width="0.5"/>
</g>
<rect x="13.5" y="86.5" width="297" height="166" rx="4.5" stroke="#C1C1C1" stroke-linecap="round" stroke-linejoin="round" stroke-dasharray="4 4"/>
<g filter="url(#filter1_i_357_188)">
<path d="M81.5708 142.307V115.548H88.4655C90.7169 115.548 92.5141 116.129 93.8636 117.287C95.2099 118.448 95.8847 119.969 95.8847 121.851C95.8847 123.209 95.5297 124.37 94.823 125.328C94.113 126.279 93.1984 127.006 92.0728 127.501C90.9535 127.99 89.7511 128.235 88.4655 128.235H84.6152V142.307H81.5708ZM84.6152 127.678H87.8387C88.5455 127.678 89.2458 127.474 89.9366 127.067C90.6273 126.659 91.2029 126.031 91.6634 125.179C92.1303 124.319 92.367 123.209 92.367 121.851C92.367 119.633 91.9065 118.115 90.9855 117.3C90.0709 116.478 89.0219 116.064 87.8387 116.064H84.6152V127.678Z" fill="white"/>
<path d="M106.046 142.715C103.606 142.715 101.646 141.974 100.162 140.487C98.6846 139.003 97.9011 137.05 97.8083 134.633C97.8083 132.833 98.1697 131.257 98.8956 129.906C99.6184 128.557 100.584 127.508 101.787 126.754C102.989 126.004 104.326 125.627 105.803 125.627C107.149 125.627 108.377 126.014 109.487 126.781C110.594 127.552 111.476 128.612 112.135 129.96C112.8 131.301 113.133 132.826 113.133 134.537H101.326C101.393 137.438 101.819 139.438 102.605 140.541C103.389 141.648 104.454 142.198 105.803 142.198C106.929 142.198 108.045 141.91 109.155 141.329C110.261 140.752 111.169 139.645 111.879 138.015L112.404 138.11C111.796 139.516 110.939 140.633 109.833 141.465C108.723 142.3 107.46 142.715 106.046 142.715ZM101.326 134.021H109.615C109.545 128.771 108.275 126.143 105.803 126.143C104.166 126.143 103.008 126.802 102.337 128.113C101.662 129.427 101.326 131.396 101.326 134.021Z" fill="white"/>
<path d="M116.304 142.307V126.143H119.348V127.99C119.825 127.304 120.391 126.754 121.05 126.347C121.715 125.939 122.46 125.736 123.288 125.736C125.085 125.736 126.486 126.299 127.484 127.42C128.481 128.544 128.98 130.147 128.98 132.228V142.307H126.089V131.155C126.089 129.417 125.853 128.16 125.386 127.379C124.925 126.591 124.225 126.197 123.288 126.197C122.393 126.197 121.619 126.449 120.973 126.944C120.333 127.433 119.79 128.072 119.348 128.86V142.307H116.304Z" fill="white"/>
<path d="M137.605 142.715C135.968 142.715 134.858 142.26 134.28 141.343C133.698 140.419 133.41 139.122 133.41 137.444V126.659H130.66V126.143H133.41V120.981H136.441V126.143H141.264V126.659H136.441V138.314C136.441 139.237 136.55 140.103 136.774 140.908C137.004 141.706 137.439 142.103 138.079 142.103C138.785 142.103 139.422 141.784 139.985 141.139C140.548 140.487 140.938 139.736 141.161 138.884L141.596 139.034C141.341 140.12 140.832 141.01 140.074 141.696C139.323 142.375 138.501 142.715 137.605 142.715Z" fill="white"/>
<path d="M152.009 142.307V141.03C151.299 141.784 150.486 142.277 149.565 142.511C148.651 142.745 147.762 142.759 146.892 142.552C146.028 142.351 145.293 142.002 144.679 141.492C144.071 140.976 143.723 140.344 143.63 139.59C143.493 138.541 143.681 137.668 144.193 136.969C144.711 136.263 145.402 135.689 146.265 135.244C147.135 134.802 148.005 134.422 148.875 134.103C149.744 133.777 150.48 133.437 151.088 133.084C151.702 132.724 152.009 132.303 152.009 131.821C152.009 130.255 151.948 129.063 151.829 128.248C151.718 127.427 151.471 126.87 151.088 126.578C150.704 126.289 150.093 126.143 149.258 126.143C148.619 126.143 148.034 126.258 147.506 126.483C146.975 126.7 146.713 126.897 146.713 127.067C146.713 127.094 146.758 127.135 146.854 127.189C146.946 127.243 147.01 127.304 147.045 127.365C147.394 127.746 147.57 128.174 147.57 128.642C147.57 129.087 147.423 129.471 147.135 129.797C146.854 130.123 146.486 130.286 146.035 130.286C145.549 130.286 145.168 130.103 144.896 129.729C144.621 129.349 144.487 128.938 144.487 128.493C144.487 127.878 144.759 127.359 145.306 126.931C145.849 126.506 146.508 126.184 147.276 125.966C148.05 125.742 148.747 125.627 149.361 125.627C150.928 125.627 152.268 126.089 153.377 127.012C154.484 127.936 155.04 129.522 155.04 131.766V142.307H152.009ZM152.009 140.215V133.206C151.299 133.614 150.48 134.076 149.553 134.592C148.622 135.101 147.842 135.729 147.212 136.48C146.588 137.234 146.323 138.188 146.419 139.346C146.511 140.09 146.879 140.684 147.519 141.125C148.165 141.57 148.913 141.743 149.757 141.642C150.608 141.543 151.359 141.068 152.009 140.215Z" fill="white"/>
<path d="M166.456 142.66C163.949 142.66 161.947 141.879 160.457 140.31C158.963 138.745 158.218 136.68 158.218 134.116C158.218 131.563 158.963 129.505 160.457 127.936C161.947 126.371 163.949 125.586 166.456 125.586C168.058 125.586 169.405 126.061 170.498 127.012V115.548H173.594V142.307H170.498V141.288C169.44 142.205 168.093 142.66 166.456 142.66ZM166.213 142.158C166.955 142.158 167.71 142.059 168.477 141.859C169.251 141.652 169.926 141.241 170.498 140.623V127.678C169.926 127.026 169.251 126.601 168.477 126.401C167.71 126.194 166.955 126.089 166.213 126.089C164.832 126.089 163.748 126.669 162.964 127.827C162.177 128.989 161.768 131.084 161.736 134.116C161.768 137.125 162.177 139.217 162.964 140.392C163.748 141.57 164.832 142.158 166.213 142.158Z" fill="white"/>
<path d="M195.649 142.715C194.044 142.715 192.592 142.338 191.287 141.587C189.989 140.837 188.947 139.869 188.153 138.68C187.367 137.485 186.945 136.222 186.887 134.891C186.852 133.967 187.018 133.254 187.386 132.744C187.76 132.228 188.221 131.97 188.767 131.97C189.337 131.97 189.768 132.171 190.059 132.568C190.347 132.958 190.494 133.356 190.494 133.763C190.494 134.381 190.469 134.884 190.418 135.271C190.373 135.661 190.328 136.045 190.277 136.426C190.232 136.799 190.213 137.329 190.213 138.015C190.213 138.595 190.45 139.21 190.929 139.862C191.415 140.507 192.071 141.057 192.899 141.519C193.734 141.974 194.652 142.198 195.649 142.198C196.519 142.198 197.402 142.063 198.297 141.791C199.199 141.519 199.954 141.081 200.561 140.473C201.175 139.859 201.482 139.04 201.482 138.015C201.482 136.514 201.156 135.227 200.51 134.157C199.871 133.081 199.033 132.147 198.003 131.359C196.98 130.571 195.886 129.858 194.728 129.213C193.577 128.561 192.483 127.905 191.454 127.243C190.43 126.574 189.593 125.841 188.947 125.043C188.307 124.238 187.987 123.273 187.987 122.149C187.987 120.991 188.259 119.878 188.806 118.808C189.35 117.731 190.187 116.852 191.313 116.173C192.439 115.487 193.852 115.14 195.56 115.14C196.839 115.14 198.041 115.399 199.167 115.915C200.293 116.424 201.201 117.09 201.892 117.911C202.582 118.726 202.928 119.579 202.928 120.465C202.928 121.182 202.755 121.701 202.416 122.027C202.084 122.353 201.674 122.516 201.188 122.516C200.709 122.516 200.293 122.323 199.935 121.932C199.583 121.535 199.41 120.91 199.41 120.058C199.41 118.862 199.119 117.83 198.54 116.961C197.958 116.091 196.932 115.657 195.458 115.657C193.82 115.657 192.483 116.118 191.454 117.042C190.43 117.959 189.919 118.964 189.919 120.058C189.919 120.975 190.245 121.806 190.904 122.557C191.559 123.311 192.407 124.031 193.449 124.717C194.498 125.396 195.614 126.072 196.801 126.741C197.993 127.403 199.11 128.119 200.152 128.887C201.201 129.647 202.052 130.51 202.71 131.468C203.366 132.418 203.695 133.512 203.695 134.741C203.695 136.31 203.414 137.614 202.851 138.653C202.288 139.696 201.578 140.514 200.728 141.112C199.883 141.703 199.001 142.114 198.08 142.348C197.165 142.592 196.356 142.715 195.649 142.715Z" fill="white"/>
<path d="M211.842 142.715C210.204 142.715 209.095 142.26 208.516 141.343C207.934 140.419 207.646 139.122 207.646 137.444V126.659H204.896V126.143H207.646V120.981H210.678V126.143H215.5V126.659H210.678V138.314C210.678 139.237 210.786 140.103 211.01 140.908C211.24 141.706 211.675 142.103 212.315 142.103C213.022 142.103 213.658 141.784 214.221 141.139C214.784 140.487 215.174 139.736 215.398 138.884L215.833 139.034C215.577 140.12 215.068 141.01 214.31 141.696C213.559 142.375 212.737 142.715 211.842 142.715Z" fill="white"/>
<path d="M216.421 152.793C215.74 152.658 215.269 152.291 215.014 151.693C214.758 151.096 214.739 150.505 214.95 149.927C215.154 149.347 215.612 149.058 216.318 149.058C216.83 149.058 217.214 149.201 217.47 149.493C217.732 149.781 217.93 150.104 218.058 150.457C218.186 150.817 218.327 151.126 218.48 151.381C218.64 151.642 218.902 151.737 219.26 151.666C219.702 151.629 220.095 151.34 220.437 150.797C220.776 150.253 221.205 149.337 221.716 148.053C222.228 146.776 222.932 144.997 223.827 142.715L217.329 126.143H220.655L225.426 138.68L230.428 126.197H230.914L221.716 149.316C221.333 150.267 220.936 150.99 220.527 151.49C220.124 151.985 219.702 152.352 219.26 152.59C218.774 152.824 218.288 152.943 217.802 152.943C217.322 152.943 216.862 152.892 216.421 152.793Z" fill="white"/>
<path d="M233.848 142.307V115.548H236.892V142.307H233.848Z" fill="white"/>
<path d="M248.304 142.715C245.864 142.715 243.904 141.974 242.42 140.487C240.942 139.003 240.159 137.05 240.066 134.633C240.066 132.833 240.427 131.257 241.153 129.906C241.876 128.557 242.842 127.508 244.044 126.754C245.247 126.004 246.583 125.627 248.061 125.627C249.407 125.627 250.635 126.014 251.745 126.781C252.851 127.552 253.734 128.612 254.393 129.96C255.058 131.301 255.391 132.826 255.391 134.537H243.584C243.651 137.438 244.076 139.438 244.863 140.541C245.646 141.648 246.711 142.198 248.061 142.198C249.187 142.198 250.303 141.91 251.412 141.329C252.519 140.752 253.427 139.645 254.137 138.015L254.661 138.11C254.054 139.516 253.197 140.633 252.09 141.465C250.981 142.3 249.717 142.715 248.304 142.715ZM243.584 134.021H251.873C251.802 128.771 250.533 126.143 248.061 126.143C246.424 126.143 245.266 126.802 244.594 128.113C243.92 129.427 243.584 131.396 243.584 134.021Z" fill="white"/>
<path d="M263.627 142.715C262.629 142.715 261.721 142.484 260.902 142.022C260.084 141.56 259.418 140.959 258.907 140.215C258.395 139.465 258.12 138.677 258.088 137.852C258.053 137.275 258.171 136.826 258.446 136.507C258.718 136.181 259.063 136.018 259.482 136.018C259.831 136.018 260.116 136.14 260.339 136.385C260.57 136.623 260.685 136.874 260.685 137.145C260.685 137.726 260.611 138.161 260.467 138.449C260.32 138.742 260.25 139.19 260.25 139.794C260.25 140.348 260.576 140.888 261.235 141.411C261.9 141.937 262.696 142.198 263.627 142.198C264.426 142.198 265.139 142.005 265.763 141.614C266.393 141.227 266.71 140.619 266.71 139.794C266.71 138.918 266.444 138.147 265.917 137.485C265.386 136.816 264.727 136.201 263.934 135.638C263.147 135.067 262.354 134.51 261.555 133.967C260.752 133.424 260.084 132.833 259.546 132.188C259.015 131.536 258.753 130.799 258.753 129.973C258.753 128.887 259.227 127.892 260.173 126.985C261.126 126.082 262.389 125.627 263.959 125.627C265.178 125.627 266.243 125.973 267.157 126.659C268.078 127.338 268.539 128.106 268.539 128.955C268.539 129.4 268.401 129.804 268.13 130.164C267.854 130.517 267.544 130.693 267.196 130.693C266.71 130.693 266.377 130.49 266.198 130.082C266.025 129.675 265.942 129.213 265.942 128.697C265.942 127.946 265.833 127.335 265.622 126.863C265.418 126.384 264.845 126.143 263.908 126.143C262.917 126.143 262.207 126.462 261.772 127.094C261.337 127.719 261.12 128.255 261.12 128.697C261.12 129.386 261.391 129.994 261.938 130.517C262.482 131.043 263.166 131.536 263.985 131.997C264.804 132.459 265.613 132.958 266.415 133.492C267.215 134.018 267.89 134.619 268.437 135.298C268.98 135.977 269.255 136.799 269.255 137.757C269.255 138.745 269.044 139.563 268.628 140.215C268.219 140.861 267.707 141.363 267.093 141.723C266.479 142.076 265.859 142.328 265.239 142.484C264.615 142.637 264.078 142.715 263.627 142.715Z" fill="white"/>
<path d="M74.4049 207.012C72.1951 206.034 70.8616 204.564 70.4011 202.597C72.8891 201.776 74.9965 200.397 76.7202 198.468C78.4502 196.533 79.3169 194.091 79.3169 191.147C79.3169 189.734 79.0611 188.454 78.5494 187.303C78.0441 186.155 77.3342 185.163 76.4132 184.328C75.4922 183.496 74.4081 182.847 73.1641 182.385C71.9169 181.917 70.5354 181.679 69.0196 181.679C66.8514 181.679 64.7887 182.026 62.8284 182.711C60.8649 183.401 59.1348 184.392 57.635 185.686C56.1416 186.983 54.9424 188.586 54.0406 190.495C53.1451 192.396 52.6974 194.577 52.6974 197.028C52.6974 199.229 53.0972 201.236 53.8998 203.046C54.7089 204.859 55.9081 206.547 57.4943 208.112C59.0869 209.678 61.0824 211.182 63.4808 212.622C65.876 214.062 68.6646 215.491 71.8465 216.914C71.8465 217.159 71.7762 217.424 71.6419 217.716C71.5044 218.015 71.3669 218.235 71.2326 218.381C69.7551 217.79 68.153 217.081 66.4229 216.249C64.6896 215.424 62.9499 214.473 61.2039 213.396C59.4546 212.316 57.7629 211.104 56.1256 209.756C54.4883 208.415 53.046 206.91 51.802 205.246C50.5548 203.582 49.5539 201.755 48.796 199.772C48.0349 197.789 47.6575 195.626 47.6575 193.279C47.6575 190.345 48.2779 187.778 49.5251 185.578C50.7691 183.37 52.4288 181.608 54.501 180.294C53.2986 179.462 52.2369 178.446 51.3159 177.251C50.3949 176.049 49.9344 174.711 49.9344 173.244C49.9344 171.678 50.4973 170.456 51.6229 169.576C52.755 168.69 54.1077 168.052 55.6779 167.661L67.9067 164.428C68.7829 164.184 69.5089 163.854 70.0813 163.437C70.6601 163.022 70.9511 162.401 70.9511 161.576C70.9511 160.988 70.7752 160.462 70.4267 160C70.0845 159.532 69.6624 159.294 69.1603 159.294H43.2316C43.0461 159.294 42.8031 159.185 42.5025 158.968C42.2051 158.744 41.9077 158.448 41.6071 158.085C41.3096 157.715 41.057 157.283 40.8523 156.794C40.6413 156.305 40.5326 155.769 40.5326 155.178H66.602C67.1968 155.178 68.0027 155.501 69.0196 156.142C70.0333 156.777 71.0215 157.576 71.9873 158.533C72.9594 159.484 73.7973 160.499 74.5072 161.576C75.2235 162.645 75.5817 163.623 75.5817 164.51C75.5817 165.732 75.1276 166.676 74.2258 167.335C73.3304 167.997 72.2847 168.473 71.0918 168.761L58.8502 171.994C57.6542 172.341 56.6405 172.819 55.8058 173.434C54.9775 174.042 54.565 174.955 54.565 176.178C54.565 177.448 55.0255 178.524 55.9465 179.411C58.6232 177.991 61.6196 177.278 64.9391 177.278C67.427 177.278 69.8127 177.869 72.0896 179.044C74.3729 180.212 76.4036 181.693 78.1784 183.486C79.9501 185.272 81.3667 187.218 82.4253 189.327C83.4806 191.429 84.0114 193.429 84.0114 195.33C84.0114 196.709 83.746 198.02 83.2183 199.27C82.6875 200.512 81.9839 201.647 81.1077 202.679C80.2379 203.705 79.2273 204.594 78.0761 205.355C76.9248 206.116 75.7 206.669 74.4049 207.012ZM78.3447 159.294C77.9354 159.294 77.5676 159.151 77.2446 158.859C76.9184 158.56 76.6434 158.194 76.4132 157.759C76.1829 157.317 75.9942 156.862 75.8503 156.401C75.7128 155.932 75.6457 155.524 75.6457 155.178H87.6059C88.0216 155.178 88.3926 155.327 88.7188 155.626C89.0417 155.918 89.32 156.285 89.5502 156.727C89.7805 157.171 89.9627 157.623 90.1003 158.085C90.2346 158.547 90.3049 158.951 90.3049 159.294H78.3447Z" fill="white"/>
<path d="M59.9566 142.26C57.9291 142.26 56.1895 142.532 54.7376 143.075C53.289 143.612 51.8723 144.271 50.4908 145.059C49.8 144.417 49.1796 143.67 48.6232 142.817C48.07 141.958 47.699 141.113 47.5103 140.277C48.8503 139.455 50.2829 138.81 51.8083 138.348C53.3273 137.88 54.8911 137.642 56.5029 137.642C59.5409 137.642 62.1408 138.45 64.3058 140.06C66.474 141.673 68.3192 143.802 69.8446 146.444C68.4631 141.999 66.6435 138.576 64.3825 136.175C62.1248 133.778 59.3362 132.575 56.0168 132.575C53.8102 132.575 51.9107 132.833 50.3245 133.35C48.7319 133.859 47.149 134.477 45.5788 135.211C44.888 134.633 44.2676 133.876 43.7112 132.942C43.158 132.012 42.7902 131.129 42.6111 130.293C43.9415 129.56 45.4189 128.976 47.037 128.541C48.6488 128.1 50.3501 127.876 52.1409 127.876C54.9551 127.876 57.539 128.528 59.8927 129.832C62.2399 131.129 64.2994 132.949 66.071 135.292C67.8459 137.639 69.3457 140.45 70.5737 143.727C71.7953 147.008 72.7227 150.628 73.3623 154.594C73.2791 154.696 73.1065 154.794 72.8506 154.893C72.5948 154.995 72.2622 155.042 71.8529 155.042C71.4371 153.232 70.9159 151.558 70.2923 150.016C69.6719 148.468 68.8852 147.12 67.9386 145.969C66.992 144.821 65.876 143.914 64.5872 143.252C63.3016 142.593 61.757 142.26 59.9566 142.26Z" fill="white"/>
<path d="M132.748 172.51C131.962 172.857 131.316 173.257 130.804 173.719C130.299 174.181 130.049 174.758 130.049 175.444C130.049 176.035 130.232 176.551 130.599 176.993C130.974 177.428 131.482 177.645 132.122 177.645C132.537 177.645 132.985 177.574 133.465 177.428C133.951 177.285 134.402 177.112 134.821 176.911L141.383 174.127C141.895 173.882 142.47 173.689 143.11 173.543C143.756 173.39 144.357 173.312 144.913 173.312C145.738 173.312 146.973 173.767 148.61 174.67C150.247 175.577 151.891 176.813 153.548 178.378C155.211 179.947 156.65 181.784 157.871 183.893C159.09 185.995 159.701 188.219 159.701 190.563C159.701 192.62 159.294 194.604 158.485 196.512C157.683 198.424 156.544 200.112 155.07 201.579C153.592 203.046 151.773 204.221 149.608 205.097C147.44 205.976 145.022 206.414 142.355 206.414C140.232 206.414 138.14 206.027 136.087 205.246C134.04 204.458 132.115 203.358 130.318 201.945C128.527 200.526 126.906 198.848 125.457 196.92C124.005 194.984 122.816 192.865 121.888 190.563C122.263 190.175 122.681 189.979 123.142 189.979C124.012 191.836 125.035 193.524 126.212 195.045C127.389 196.56 128.668 197.843 130.049 198.903C131.431 199.956 132.892 200.774 134.437 201.361C135.978 201.942 137.536 202.231 139.106 202.231C141.082 202.231 143.007 201.891 144.875 201.212C146.743 200.526 148.412 199.534 149.889 198.237C151.364 196.943 152.55 195.368 153.445 193.51C154.347 191.646 154.801 189.54 154.801 187.194C154.801 184.406 154.187 182.127 152.959 180.362C151.738 178.596 150.12 177.713 148.098 177.713C147.03 177.713 145.902 177.957 144.709 178.446L138.134 181.163C137.673 181.363 137.2 181.537 136.714 181.679C136.234 181.825 135.697 181.896 135.102 181.896C134.546 181.896 133.945 181.74 133.299 181.421C132.649 181.105 131.981 180.694 131.29 180.185C130.599 179.669 129.922 179.095 129.256 178.46C128.591 177.818 128.003 177.156 127.491 176.477C125.553 175.444 123.123 174.514 120.2 173.679C117.274 172.847 113.782 172.409 109.723 172.361C110.737 172.898 111.693 173.631 112.589 174.561C113.491 175.495 114.29 176.524 114.981 177.645C115.672 178.769 116.212 179.968 116.605 181.244C116.996 182.514 117.194 183.757 117.194 184.98C117.194 186.848 116.88 188.491 116.26 189.911C115.636 191.323 114.805 192.519 113.766 193.497C112.733 194.475 111.546 195.208 110.21 195.697C108.87 196.186 107.488 196.431 106.065 196.431C104.453 196.431 102.701 195.979 100.808 195.072C98.9209 194.169 97.1685 192.974 95.5503 191.486C93.9386 189.992 92.589 188.304 91.5081 186.42C90.4241 184.538 89.8836 182.64 89.8836 180.728C89.8836 178.82 90.2738 177.081 91.0604 175.512C91.8439 173.947 92.9472 172.616 94.3735 171.519C95.8061 170.415 97.5106 169.559 99.4902 168.952C101.476 168.337 103.647 168.028 106.001 168.028C110.05 168.028 113.746 168.595 117.091 169.726C120.433 170.85 123.347 172.116 125.828 173.529C125.742 173.04 125.7 172.701 125.7 172.51C125.7 171.532 126.046 170.7 126.736 170.011C127.427 169.325 128.367 168.714 129.563 168.177L139.592 163.695C140.324 163.352 140.91 162.985 141.344 162.595C141.786 162.207 142.01 161.695 142.01 161.06C142.01 160.571 141.869 160.156 141.588 159.81C141.312 159.467 140.974 159.294 140.564 159.294H86.852C86.4362 159.294 86.0653 159.151 85.7391 158.859C85.4161 158.56 85.1379 158.194 84.9077 157.759C84.6774 157.317 84.5079 156.862 84.396 156.401C84.2777 155.932 84.2169 155.524 84.2169 155.178H138.006C138.549 155.178 139.304 155.487 140.27 156.102C141.242 156.71 142.202 157.467 143.148 158.37C144.095 159.277 144.913 160.245 145.604 161.277C146.295 162.303 146.64 163.206 146.64 163.994C146.64 164.927 146.26 165.712 145.502 166.344C144.741 166.979 143.829 167.539 142.764 168.028L132.748 172.51ZM112.423 181.027C112.423 180.294 112.327 179.526 112.141 178.718C111.962 177.903 111.684 177.108 111.31 176.327C110.942 175.539 110.469 174.806 109.89 174.127C109.317 173.441 108.639 172.874 107.856 172.429C106.014 172.585 104.293 172.969 102.701 173.583C101.115 174.191 99.746 175.01 98.5947 176.042C97.4435 177.068 96.5289 178.29 95.8573 179.71C95.1922 181.122 94.8596 182.684 94.8596 184.396C94.8596 186.895 95.5375 188.831 96.8934 190.196C98.2558 191.564 100.002 192.247 102.125 192.247C103.641 192.247 105.023 191.969 106.27 191.405C107.514 190.844 108.598 190.067 109.519 189.068C110.44 188.063 111.15 186.878 111.655 185.51C112.167 184.134 112.423 182.64 112.423 181.027ZM149.685 159.294C149.266 159.294 148.895 159.151 148.572 158.859C148.255 158.56 147.983 158.194 147.753 157.759C147.523 157.317 147.334 156.862 147.19 156.401C147.053 155.932 146.986 155.524 146.986 155.178H163.167C163.576 155.178 163.941 155.327 164.267 155.626C164.59 155.918 164.868 156.285 165.099 156.727C165.329 157.171 165.511 157.623 165.649 158.085C165.783 158.547 165.853 158.951 165.853 159.294H149.685Z" fill="white"/>
<path d="M142.905 215.516C141.159 215.516 139.681 215.658 138.479 215.95C137.276 216.249 136.08 216.596 134.884 216.996C134.193 216.351 133.605 215.577 133.119 214.674C132.633 213.767 132.3 212.898 132.121 212.066C133.18 211.675 134.251 211.373 135.332 211.156C136.416 210.938 137.602 210.83 138.888 210.83C141.242 210.83 143.413 211.24 145.399 212.066C147.378 212.898 149.208 213.988 150.887 215.339C152.569 216.687 154.123 218.239 155.556 219.998C156.979 221.764 158.338 223.574 159.636 225.432C159.406 225.965 159.035 226.233 158.523 226.233C157.327 224.664 156.189 223.221 155.108 221.9C154.027 220.586 152.895 219.448 151.718 218.491C150.541 217.54 149.243 216.806 147.817 216.29C146.384 215.774 144.747 215.516 142.905 215.516Z" fill="white"/>
<path d="M215.487 159.294V207.229C214.566 207.229 213.664 207.056 212.788 206.713C211.908 206.37 211.15 205.783 210.511 204.947V177.428L191.08 192.478C190.159 192.081 189.36 191.456 188.688 190.603C188.023 189.744 187.575 189.021 187.345 188.43L196.747 181.163C195.73 178.62 194.256 176.663 192.321 175.295C190.393 173.93 188.231 173.244 185.836 173.244C184.077 173.244 182.401 173.577 180.809 174.235C179.222 174.898 177.828 175.876 176.626 177.169C175.43 178.467 174.464 180.083 173.722 182.019C172.987 183.948 172.622 186.209 172.622 188.797C172.622 191.008 172.897 192.994 173.453 194.76C174.007 196.519 174.825 198.156 175.909 199.677C176.99 201.192 178.34 202.621 179.952 203.969C181.563 205.311 183.405 206.642 185.478 207.963C185.391 208.496 185.139 208.914 184.723 209.213C183.111 208.323 181.311 207.161 179.325 205.722C177.345 204.282 175.491 202.557 173.76 200.546C172.037 198.536 170.575 196.251 169.373 193.687C168.177 191.116 167.582 188.24 167.582 185.061C167.582 182.419 167.982 180.07 168.784 178.012C169.594 175.957 170.69 174.232 172.072 172.836C173.453 171.444 175.03 170.391 176.805 169.685C178.577 168.972 180.431 168.612 182.369 168.612C186.335 168.612 189.628 169.692 192.257 171.845C194.883 174.001 196.888 176.718 198.269 179.995L210.511 170.446V159.294H163.156C162.74 159.294 162.373 159.151 162.056 158.859C161.733 158.56 161.455 158.194 161.225 157.759C160.994 157.317 160.812 156.862 160.675 156.401C160.531 155.932 160.457 155.524 160.457 155.178H223.226C223.642 155.178 224.009 155.327 224.326 155.626C224.649 155.918 224.927 156.285 225.157 156.727C225.388 157.171 225.57 157.623 225.707 158.085C225.851 158.547 225.925 158.951 225.925 159.294H215.487Z" fill="white"/>
<path d="M194.185 218.748C194.185 217.234 194.498 215.855 195.119 214.605C195.742 213.356 196.609 212.289 197.716 211.413C198.825 210.534 200.117 209.851 201.591 209.362C203.059 208.873 204.671 208.629 206.427 208.629C209.004 208.629 211.364 209.09 213.513 210.014C215.656 210.944 217.683 212.364 219.602 214.266C221.514 216.174 223.344 218.599 225.09 221.533C226.836 224.473 228.611 227.951 230.411 231.965C230.222 232.352 229.992 232.583 229.72 232.657C229.445 232.729 229.17 232.766 228.889 232.766C227.37 229.343 225.86 226.382 224.361 223.883C222.861 221.39 221.329 219.336 219.768 217.716C218.201 216.103 216.577 214.904 214.895 214.116C213.216 213.335 211.428 212.948 209.535 212.948C207.923 212.948 206.449 213.206 205.109 213.722C203.772 214.238 202.64 214.935 201.719 215.814C200.798 216.69 200.088 217.719 199.583 218.898C199.071 220.072 198.816 221.322 198.816 222.647C198.816 224.701 199.5 226.328 200.862 227.523C202.218 228.718 203.932 229.316 206.005 229.316C207.575 229.316 209.075 228.885 210.507 228.026C211.933 227.173 213.014 226.137 213.756 224.915C214.626 225.214 215.467 225.679 216.276 226.314C217.079 226.946 217.734 227.659 218.246 228.447C217.463 229.958 216.324 231.139 214.831 231.992C213.331 232.851 211.703 233.282 209.944 233.282C208.24 233.282 206.459 232.814 204.597 231.883C202.73 230.96 201.025 229.785 199.481 228.365C197.939 226.942 196.673 225.377 195.682 223.665C194.684 221.954 194.185 220.314 194.185 218.748Z" fill="white"/>
<path d="M242.372 200.112C240.894 200.112 239.257 199.66 237.46 198.753C235.659 197.85 233.955 196.648 232.343 195.154C230.731 193.66 229.382 191.972 228.301 190.087C227.217 188.206 226.676 186.308 226.676 184.396C226.676 182.487 227.035 180.752 227.751 179.193C228.467 177.628 229.481 176.293 230.795 175.186C232.106 174.083 233.661 173.227 235.452 172.619C237.249 172.004 239.231 171.695 241.4 171.695C243.616 171.695 245.877 171.967 248.179 172.51V159.294H223.913C223.498 159.294 223.13 159.151 222.813 158.859C222.49 158.56 222.212 158.194 221.982 157.759C221.752 157.317 221.569 156.862 221.432 156.401C221.288 155.932 221.214 155.524 221.214 155.178H281.079C281.495 155.178 281.863 155.327 282.179 155.626C282.502 155.918 282.781 156.285 283.011 156.727C283.241 157.171 283.423 157.623 283.561 158.085C283.705 158.547 283.778 158.951 283.778 159.294H273.34V207.229C272.419 207.229 271.518 207.056 270.641 206.713C269.762 206.37 269.004 205.783 268.364 204.947V195.045C268.364 193.089 268.006 191.184 267.29 189.327C266.574 187.462 265.557 185.737 264.246 184.151C262.931 182.559 261.342 181.163 259.474 179.968C257.607 178.766 255.499 177.818 253.155 177.129V186.746C253.155 188.658 252.931 190.434 252.49 192.07C252.055 193.711 251.396 195.133 250.52 196.336C249.65 197.531 248.531 198.461 247.169 199.12C245.813 199.782 244.214 200.112 242.372 200.112ZM253.155 174.045C256.241 175.322 259.084 176.99 261.687 179.044C264.297 181.102 266.522 183.445 268.364 186.08V159.294H253.155V174.045ZM238.777 195.928C240.344 195.928 241.726 195.636 242.922 195.045C244.124 194.458 245.103 193.66 245.864 192.654C246.622 191.649 247.197 190.478 247.591 189.136C247.981 187.788 248.179 186.359 248.179 184.844V176.178C247.668 176.134 247.133 176.096 246.58 176.069C246.033 176.042 245.483 176.028 244.93 176.028C243.088 176.028 241.355 176.31 239.737 176.871C238.125 177.434 236.718 178.229 235.515 179.261C234.319 180.287 233.379 181.543 232.688 183.037C231.998 184.532 231.652 186.209 231.652 188.063C231.652 190.563 232.308 192.502 233.622 193.877C234.933 195.245 236.654 195.928 238.777 195.928Z" fill="white"/>
</g>
<defs>
<filter id="filter0_d_357_188" x="0" y="75" width="322" height="194" filterUnits="userSpaceOnUse" color-interpolation-filters="sRGB">
<feFlood flood-opacity="0" result="BackgroundImageFix"/>
<feColorMatrix in="SourceAlpha" type="matrix" values="0 0 0 0 0 0 0 0 0 0 0 0 0 0 0 0 0 0 127 0" result="hardAlpha"/>
<feOffset dy="5"/>
<feComposite in2="hardAlpha" operator="out"/>
<feColorMatrix type="matrix" values="0 0 0 0 0 0 0 0 0 0 0 0 0 0 0 0 0 0 0.25 0"/>
<feBlend mode="normal" in2="BackgroundImageFix" result="effect1_dropShadow_357_188"/>
<feBlend mode="normal" in="SourceGraphic" in2="effect1_dropShadow_357_188" result="shape"/>
</filter>
<filter id="filter1_i_357_188" x="9" y="-1" width="307" height="327" filterUnits="userSpaceOnUse" color-interpolation-filters="sRGB">
<feFlood flood-opacity="0" result="BackgroundImageFix"/>
<feBlend mode="normal" in="SourceGraphic" in2="BackgroundImageFix" result="shape"/>
<feColorMatrix in="SourceAlpha" type="matrix" values="0 0 0 0 0 0 0 0 0 0 0 0 0 0 0 0 0 0 127 0" result="hardAlpha"/>
<feOffset dy="-1"/>
<feGaussianBlur stdDeviation="0.9"/>
<feComposite in2="hardAlpha" operator="arithmetic" k2="-1" k3="1"/>
<feColorMatrix type="matrix" values="0 0 0 0 0 0 0 0 0 0 0 0 0 0 0 0 0 0 0.35 0"/>
<feBlend mode="normal" in2="shape" result="effect1_innerShadow_357_188"/>
</filter>
</defs>
</svg>
