<svg height="35" viewBox="0 0 0 35" fill="none" xmlns="http://www.w3.org/2000/svg">
<path d="M-0.707107 35.7071C-0.316583 36.0976 0.316583 36.0976 0.707107 35.7071L7.07107 29.3431C7.46159 28.9526 7.46159 28.3195 7.07107 27.9289C6.68054 27.5384 6.04738 27.5384 5.65685 27.9289L2.55487e-10 33.5858L-5.65685 27.9289C-6.04738 27.5384 -6.68054 27.5384 -7.07107 27.9289C-7.46159 28.3195 -7.46159 28.9526 -7.07107 29.3431L-0.707107 35.7071ZM6.32281e-09 0L-1 -1.80651e-10L-1 35L0 35L1 35L1 1.80651e-10L6.32281e-09 0Z" fill="black"/>
</svg>
