<svg width="63" height="63" viewBox="0 0 63 63" fill="none" xmlns="http://www.w3.org/2000/svg">
<path d="M31.25 62.5C48.5089 62.5 62.5 48.5089 62.5 31.25C62.5 13.9911 48.5089 0 31.25 0C13.9911 0 0 13.9911 0 31.25C0 48.5089 13.9911 62.5 31.25 62.5Z" stroke="#A41212" stroke-width="4"/>
<path d="M41.6663 31.25C41.6663 40.2708 40.2913 48.3458 38.1372 54.0875C37.058 56.9667 35.8205 59.1542 34.5538 60.5833C33.2872 62.0125 32.1663 62.5 31.2497 62.5C30.333 62.5 29.208 62.0125 27.9413 60.5833C26.6788 59.1542 25.4413 56.9667 24.358 54.0875C22.208 48.3458 20.833 40.2708 20.833 31.25C20.833 22.2292 22.208 14.1542 24.3622 8.4125C25.4413 5.53333 26.6788 3.34583 27.9455 1.91667C29.2122 0.4875 30.333 0 31.2497 0C32.1663 0 33.2913 0.4875 34.558 1.91667C35.8205 3.34583 37.058 5.53333 38.1413 8.4125C40.2913 14.1542 41.6663 22.2292 41.6663 31.25Z" stroke="#A41212" stroke-width="4"/>
<path d="M0 31.25H62.5" stroke="#A41212" stroke-width="4" stroke-linecap="round"/>
</svg>
