<svg width="136" height="36" viewBox="0 0 136 36" fill="none" xmlns="http://www.w3.org/2000/svg">
<path opacity="0.25" fill-rule="evenodd" clip-rule="evenodd" d="M117.826 35.0926C127.518 35.0926 135.375 27.2369 135.375 17.5463C135.375 7.85575 127.518 0 117.826 0C108.134 0 100.277 7.85575 100.277 17.5463C100.277 27.2369 108.134 35.0926 117.826 35.0926Z" stroke="white" stroke-width="1.5"/>
<path d="M123.563 14.3022C123.481 14.2102 123.35 14.187 123.242 14.2438C123.175 14.2791 123.049 14.3254 122.9 14.3711C123.089 14.1132 123.24 13.8244 123.307 13.5649C123.336 13.453 123.294 13.3351 123.202 13.2684C123.11 13.2023 122.987 13.2023 122.895 13.2684C122.749 13.3726 122.049 13.6856 121.605 13.787C120.604 12.8849 119.439 12.7912 118.227 13.5186C117.242 14.1099 117.028 15.3123 117.07 16.0452C114.815 15.822 113.414 14.5976 112.625 13.5842C112.57 13.5131 112.481 13.4756 112.398 13.4811C112.31 13.4877 112.231 13.5379 112.186 13.6156C111.813 14.2631 111.709 14.9789 111.888 15.6859C111.985 16.0717 112.156 16.4117 112.353 16.6872C112.258 16.6393 112.167 16.5792 112.081 16.5076C112.001 16.4403 111.89 16.4277 111.797 16.4723C111.703 16.518 111.644 16.615 111.644 16.7214C111.644 17.9354 112.382 18.7454 113.072 19.1686C112.96 19.1549 112.844 19.1295 112.727 19.0926C112.626 19.0612 112.517 19.0926 112.447 19.1741C112.377 19.2552 112.361 19.3709 112.404 19.4695C112.792 20.3507 113.526 20.9568 114.434 21.1767C113.641 21.6556 112.579 21.8903 111.607 21.7752C111.481 21.757 111.361 21.8391 111.322 21.9636C111.282 22.0882 111.334 22.2248 111.445 22.2888C112.92 23.1401 114.253 23.4443 115.405 23.4443C117.081 23.4443 118.375 22.8007 119.163 22.2623C121.287 20.813 122.61 18.2109 122.426 15.8827C122.766 15.6242 123.275 15.147 123.591 14.6339C123.656 14.5303 123.644 14.3937 123.563 14.3022Z" fill="white"/>
<path opacity="0.25" fill-rule="evenodd" clip-rule="evenodd" d="M67.6854 35.0926C77.3773 35.0926 85.2341 27.2369 85.2341 17.5463C85.2341 7.85575 77.3773 0 67.6854 0C57.9935 0 50.1367 7.85575 50.1367 17.5463C50.1367 27.2369 57.9935 35.0926 67.6854 35.0926Z" stroke="white" stroke-width="1.5"/>
<path d="M69.2832 13.0549H70.896C71.0444 13.0549 71.1648 12.9415 71.1648 12.8017V11.2821C71.1648 11.1423 71.0444 11.0288 70.896 11.0288H69.2832C67.6531 11.0288 66.3263 12.2784 66.3263 13.8147V15.5876H64.4446C64.2962 15.5876 64.1758 15.7011 64.1758 15.8409V17.3605C64.1758 17.5003 64.2962 17.6137 64.4446 17.6137H66.3263V22.9323C66.3263 23.0721 66.4467 23.1856 66.5951 23.1856H68.2079C68.3563 23.1856 68.4767 23.0721 68.4767 22.9323V17.6137H70.3584C70.474 17.6137 70.5767 17.5438 70.6138 17.4405L71.1514 15.9209C71.1788 15.8439 71.1648 15.7588 71.1143 15.6925C71.0632 15.6266 70.9826 15.5876 70.896 15.5876H68.4767V13.8147C68.4767 13.3958 68.8385 13.0549 69.2832 13.0549Z" fill="white"/>
<path opacity="0.25" fill-rule="evenodd" clip-rule="evenodd" d="M17.5487 35.0926C27.2406 35.0926 35.0974 27.2369 35.0974 17.5463C35.0974 7.85575 27.2406 0 17.5487 0C7.85683 0 0 7.85575 0 17.5463C0 27.2369 7.85683 35.0926 17.5487 35.0926Z" stroke="white" stroke-width="1.5"/>
<path d="M13.5228 14.0038C14.3445 14.0038 15.0105 13.3378 15.0105 12.5163C15.0105 11.6948 14.3445 11.0288 13.5228 11.0288C12.7012 11.0288 12.0352 11.6948 12.0352 12.5163C12.0352 13.3378 12.7012 14.0038 13.5228 14.0038Z" fill="white"/>
<path d="M14.7626 14.9966H12.2831C12.1462 14.9966 12.0352 15.1076 12.0352 15.2445V22.6819C12.0352 22.8187 12.1462 22.9298 12.2831 22.9298H14.7626C14.8994 22.9298 15.0105 22.8187 15.0105 22.6819V15.2445C15.0105 15.1076 14.8994 14.9966 14.7626 14.9966Z" fill="white"/>
<path d="M22.1495 14.5844C21.0898 14.2215 19.7643 14.5403 18.9694 15.112C18.9421 15.0054 18.8449 14.926 18.7294 14.926H16.2499C16.113 14.926 16.002 15.0371 16.002 15.1739V22.6113C16.002 22.7482 16.113 22.8592 16.2499 22.8592H18.7294C18.8662 22.8592 18.9773 22.7482 18.9773 22.6113V17.2663C19.378 16.9212 19.8942 16.8112 20.3167 16.9906C20.7263 17.1637 20.9609 17.5861 20.9609 18.1489V22.6113C20.9609 22.7482 21.072 22.8592 21.2088 22.8592H23.6883C23.8252 22.8592 23.9362 22.7482 23.9362 22.6113V17.6496C23.908 15.6123 22.9494 14.8581 22.1495 14.5844Z" fill="white"/>
</svg>
