<svg width="179" height="95" viewBox="0 0 179 95" fill="none" xmlns="http://www.w3.org/2000/svg">
<path d="M45.8477 29.8456V15.1162H49.7637C51.0424 15.1162 52.0632 15.4358 52.8297 16.0732C53.5944 16.7125 53.9777 17.5499 53.9777 18.5855C53.9777 19.3332 53.7761 19.9724 53.3747 20.4995C52.9714 21.0229 52.4519 21.4229 51.8126 21.6958C51.1769 21.965 50.4939 22.0996 49.7637 22.0996H47.5768V29.8456H45.8477ZM47.5768 21.793H49.4077C49.8091 21.793 50.2069 21.6809 50.5993 21.4566C50.9916 21.2323 51.3185 20.8865 51.5801 20.4173C51.8453 19.9444 51.9797 19.3332 51.9797 18.5855C51.9797 17.3649 51.7181 16.5293 51.195 16.0807C50.6755 15.6284 50.0798 15.4003 49.4077 15.4003H47.5768V21.793Z" fill="#A41212"/>
<path d="M59.7493 30.0699C58.3634 30.0699 57.2499 29.6624 56.4072 28.8437C55.568 28.0268 55.123 26.952 55.0703 25.6212C55.0703 24.6305 55.2756 23.7632 55.6879 23.0192C56.0984 22.2771 56.6469 21.6995 57.3299 21.2846C58.0128 20.8715 58.7721 20.664 59.6112 20.664C60.3759 20.664 61.0734 20.8771 61.7037 21.2995C62.3321 21.7238 62.8334 22.307 63.2076 23.0491C63.5854 23.7875 63.7743 24.6267 63.7743 25.5688H57.0683C57.1065 27.1651 57.348 28.2661 57.7949 28.8736C58.2399 29.4829 58.8447 29.7858 59.6112 29.7858C60.2506 29.7858 60.8845 29.6269 61.5148 29.3072C62.1432 28.9895 62.6591 28.3801 63.0623 27.4829L63.3602 27.5352C63.0151 28.3091 62.5283 28.9241 61.8998 29.382C61.2696 29.8418 60.5521 30.0699 59.7493 30.0699ZM57.0683 25.2847H61.7763C61.7364 22.3949 61.0153 20.9481 59.6112 20.9481C58.6812 20.9481 58.0237 21.3107 57.6423 22.0323C57.259 22.7557 57.0683 23.8398 57.0683 25.2847Z" fill="#A41212"/>
<path d="M65.5762 29.8456V20.9481H67.3053V21.965C67.576 21.5874 67.8975 21.2846 68.2717 21.0603C68.6495 20.836 69.0727 20.7238 69.5431 20.7238C70.5639 20.7238 71.3595 21.0341 71.9262 21.6509C72.4929 22.2697 72.7762 23.1519 72.7762 24.2978V29.8456H71.1342V23.7071C71.1342 22.75 70.9998 22.0584 70.7346 21.6285C70.4731 21.1949 70.0753 20.978 69.5431 20.978C69.0345 20.978 68.595 21.1164 68.2281 21.3893C67.8648 21.6584 67.556 22.0098 67.3053 22.4435V29.8456H65.5762Z" fill="#A41212"/>
<path d="M77.6756 30.0699C76.7456 30.0699 76.1154 29.8194 75.7866 29.3147C75.456 28.8063 75.2925 28.0923 75.2925 27.1689V21.2323H73.7305V20.9481H75.2925V18.1069H77.0145V20.9481H79.7535V21.2323H77.0145V27.6474C77.0145 28.1558 77.0762 28.6325 77.2034 29.0755C77.3341 29.5147 77.5812 29.7334 77.9444 29.7334C78.3458 29.7334 78.7073 29.5577 79.027 29.2026C79.3467 28.8437 79.5683 28.4306 79.6954 27.9614L79.9424 28.0437C79.7971 28.6418 79.5083 29.1316 79.0778 29.5091C78.651 29.883 78.1842 30.0699 77.6756 30.0699Z" fill="#A41212"/>
<path d="M85.8558 29.8456V29.1428C85.4526 29.5577 84.9913 29.8288 84.4681 29.9577C83.9487 30.0867 83.4437 30.0942 82.9497 29.9802C82.4592 29.8699 82.0415 29.6773 81.6927 29.397C81.3476 29.1128 81.1497 28.7652 81.097 28.3502C81.0189 27.7726 81.126 27.2922 81.4167 26.9072C81.7109 26.5184 82.1032 26.2025 82.5937 25.9576C83.0877 25.7146 83.5818 25.5053 84.0758 25.3296C84.5699 25.1501 84.9876 24.9632 85.3327 24.7688C85.6815 24.5707 85.8558 24.3389 85.8558 24.0734C85.8558 23.2117 85.8213 22.5556 85.7541 22.107C85.6906 21.6547 85.5507 21.3481 85.3327 21.1874C85.1148 21.0285 84.7678 20.9481 84.2938 20.9481C83.9305 20.9481 83.5981 21.0117 83.2984 21.135C82.9969 21.2547 82.8479 21.3631 82.8479 21.4565C82.8479 21.4715 82.8734 21.4939 82.9279 21.5238C82.9805 21.5537 83.0169 21.5874 83.0369 21.621C83.2348 21.8304 83.3347 22.0659 83.3347 22.3239C83.3347 22.5687 83.2512 22.78 83.0877 22.9594C82.9279 23.1388 82.719 23.2286 82.4629 23.2286C82.1868 23.2286 81.9706 23.1276 81.8163 22.922C81.66 22.7127 81.5838 22.4865 81.5838 22.2416C81.5838 21.9033 81.7382 21.6173 82.0488 21.3818C82.3575 21.1481 82.7317 20.9706 83.1676 20.8509C83.6072 20.7276 84.0032 20.664 84.3519 20.664C85.2419 20.664 86.003 20.9182 86.6332 21.4266C87.2617 21.9351 87.5778 22.808 87.5778 24.0435V29.8456H85.8558ZM85.8558 28.6941V24.8361C85.4526 25.0604 84.9876 25.3146 84.4609 25.5987C83.9323 25.8791 83.4891 26.2249 83.1313 26.638C82.7771 27.053 82.6264 27.5782 82.6808 28.2156C82.7335 28.625 82.9424 28.9521 83.3057 29.1951C83.6726 29.44 84.0976 29.5353 84.5771 29.4792C85.0603 29.425 85.4871 29.1633 85.8558 28.6941Z" fill="#A41212"/>
<path d="M94.0618 30.04C92.6377 30.04 91.5007 29.6101 90.6543 28.7465C89.806 27.8848 89.3828 26.7483 89.3828 25.3371C89.3828 23.9314 89.806 22.7987 90.6543 21.9351C91.5007 21.0734 92.6377 20.6416 94.0618 20.6416C94.9718 20.6416 95.7364 20.9033 96.3576 21.4267V15.1162H98.1159V29.8456H96.3576V29.2848C95.7564 29.7895 94.9917 30.04 94.0618 30.04ZM93.9237 29.7634C94.3451 29.7634 94.7738 29.7092 95.2097 29.5989C95.6493 29.4849 96.0325 29.2587 96.3576 28.9185V21.793C96.0325 21.4342 95.6493 21.2005 95.2097 21.0902C94.7738 20.9762 94.3451 20.9182 93.9237 20.9182C93.139 20.9182 92.5233 21.2379 92.0783 21.8753C91.6315 22.5146 91.399 23.6679 91.3808 25.3371C91.399 26.9932 91.6315 28.1446 92.0783 28.7914C92.5233 29.44 93.139 29.7634 93.9237 29.7634Z" fill="#A41212"/>
<path d="M110.644 30.0699C109.732 30.0699 108.907 29.8624 108.166 29.4493C107.429 29.0362 106.836 28.5035 106.386 27.8492C105.939 27.1913 105.699 26.4959 105.667 25.7632C105.647 25.2548 105.741 24.8622 105.95 24.5818C106.163 24.2977 106.424 24.1557 106.735 24.1557C107.058 24.1557 107.303 24.266 107.469 24.4846C107.632 24.6996 107.716 24.9183 107.716 25.1426C107.716 25.4828 107.701 25.7595 107.672 25.9725C107.647 26.1875 107.621 26.3987 107.592 26.6081C107.567 26.8137 107.556 27.1053 107.556 27.4829C107.556 27.8025 107.69 28.1408 107.963 28.4997C108.239 28.8549 108.611 29.1577 109.081 29.4119C109.556 29.6624 110.077 29.7857 110.644 29.7857C111.138 29.7857 111.639 29.711 112.147 29.5614C112.66 29.4119 113.088 29.1708 113.433 28.8362C113.782 28.4978 113.957 28.0474 113.957 27.4829C113.957 26.6567 113.771 25.9482 113.404 25.3594C113.041 24.7669 112.565 24.2529 111.98 23.8192C111.399 23.3856 110.778 22.993 110.12 22.6379C109.467 22.279 108.845 21.9182 108.26 21.5537C107.679 21.1855 107.203 20.7817 106.836 20.3425C106.473 19.8995 106.292 19.3686 106.292 18.7499C106.292 18.1125 106.446 17.4994 106.756 16.9106C107.065 16.3181 107.541 15.8339 108.181 15.4601C108.82 15.0825 109.623 14.8918 110.593 14.8918C111.319 14.8918 112.002 15.0339 112.642 15.318C113.281 15.5984 113.797 15.9648 114.189 16.4171C114.581 16.8657 114.778 17.3349 114.778 17.8228C114.778 18.2172 114.679 18.5032 114.487 18.6826C114.298 18.8621 114.066 18.9518 113.789 18.9518C113.517 18.9518 113.281 18.8452 113.077 18.6303C112.878 18.4116 112.78 18.0676 112.78 17.5985C112.78 16.9405 112.614 16.3723 112.285 15.8937C111.955 15.4152 111.372 15.176 110.535 15.176C109.605 15.176 108.845 15.4302 108.26 15.9386C107.679 16.4433 107.389 16.9966 107.389 17.5985C107.389 18.1032 107.574 18.5611 107.948 18.9742C108.32 19.3892 108.802 19.7854 109.394 20.163C109.99 20.5369 110.624 20.9088 111.297 21.2771C111.975 21.6416 112.609 22.036 113.201 22.4584C113.797 22.8771 114.28 23.3519 114.654 23.879C115.026 24.4024 115.213 25.0043 115.213 25.6809C115.213 26.5445 115.054 27.2623 114.734 27.8343C114.414 28.4081 114.011 28.8586 113.528 29.1876C113.048 29.5128 112.547 29.739 112.024 29.868C111.504 30.0026 111.045 30.0699 110.644 30.0699Z" fill="#A41212"/>
<path d="M119.84 30.0699C118.91 30.0699 118.279 29.8194 117.951 29.3147C117.62 28.8063 117.457 28.0923 117.457 27.1689V21.2323H115.895V20.9481H117.457V18.1069H119.179V20.9481H121.918V21.2323H119.179V27.6474C119.179 28.1558 119.24 28.6325 119.367 29.0755C119.498 29.5147 119.745 29.7334 120.108 29.7334C120.51 29.7334 120.871 29.5577 121.191 29.2026C121.511 28.8437 121.732 28.4306 121.859 27.9614L122.106 28.0437C121.961 28.6418 121.672 29.1316 121.242 29.5091C120.815 29.883 120.348 30.0699 119.84 30.0699Z" fill="#A41212"/>
<path d="M122.441 35.6177C122.054 35.5429 121.787 35.3411 121.642 35.0121C121.497 34.6831 121.486 34.3579 121.606 34.0401C121.722 33.7205 121.981 33.5616 122.383 33.5616C122.674 33.5616 122.891 33.6401 123.037 33.8008C123.186 33.9597 123.298 34.1373 123.371 34.3317C123.444 34.5298 123.524 34.6999 123.611 34.8401C123.702 34.984 123.851 35.0364 124.054 34.9971C124.305 34.9766 124.528 34.8177 124.722 34.5186C124.915 34.2195 125.158 33.7148 125.449 33.0083C125.74 32.3055 126.139 31.326 126.648 30.0699L122.957 20.9481H124.846L127.556 27.8493L130.397 20.978H130.673L125.449 33.7036C125.231 34.227 125.006 34.6252 124.773 34.8999C124.544 35.1728 124.305 35.3747 124.054 35.5056C123.778 35.6345 123.502 35.6999 123.226 35.6999C122.953 35.6999 122.692 35.6719 122.441 35.6177Z" fill="#A41212"/>
<path d="M132.338 29.8456V15.1162H134.067V29.8456H132.338Z" fill="#A41212"/>
<path d="M140.55 30.0699C139.164 30.0699 138.051 29.6624 137.208 28.8437C136.369 28.0268 135.924 26.952 135.871 25.6212C135.871 24.6305 136.076 23.7632 136.489 23.0192C136.899 22.2771 137.448 21.6995 138.131 21.2846C138.814 20.8715 139.573 20.664 140.412 20.664C141.177 20.664 141.874 20.8771 142.504 21.2995C143.133 21.7238 143.634 22.307 144.008 23.0491C144.386 23.7875 144.575 24.6267 144.575 25.5688H137.869C137.907 27.1651 138.149 28.2661 138.596 28.8736C139.041 29.4829 139.645 29.7858 140.412 29.7858C141.051 29.7858 141.685 29.6269 142.316 29.3072C142.944 28.9895 143.46 28.3801 143.863 27.4829L144.161 27.5352C143.816 28.3091 143.329 28.9241 142.701 29.382C142.07 29.8418 141.353 30.0699 140.55 30.0699ZM137.869 25.2847H142.577C142.537 22.3949 141.816 20.9481 140.412 20.9481C139.482 20.9481 138.824 21.3107 138.443 22.0323C138.06 22.7557 137.869 23.8398 137.869 25.2847Z" fill="#A41212"/>
<path d="M149.253 30.0699C148.686 30.0699 148.17 29.9428 147.705 29.6886C147.24 29.4343 146.863 29.1035 146.572 28.6941C146.281 28.281 146.125 27.8474 146.107 27.3932C146.087 27.0754 146.154 26.8287 146.31 26.653C146.465 26.4735 146.661 26.3838 146.899 26.3838C147.097 26.3838 147.259 26.4511 147.386 26.5857C147.516 26.7165 147.582 26.8548 147.582 27.0044C147.582 27.324 147.54 27.5633 147.458 27.7221C147.375 27.8829 147.335 28.1296 147.335 28.4624C147.335 28.767 147.52 29.0642 147.894 29.3521C148.272 29.6418 148.724 29.7858 149.253 29.7858C149.707 29.7858 150.112 29.6792 150.466 29.4643C150.824 29.2512 151.004 28.9166 151.004 28.4624C151.004 27.9801 150.853 27.5558 150.553 27.1913C150.252 26.8231 149.878 26.4847 149.427 26.1744C148.98 25.8604 148.53 25.5539 148.076 25.2548C147.62 24.9557 147.24 24.6305 146.935 24.2753C146.634 23.9164 146.485 23.5108 146.485 23.0566C146.485 22.4584 146.754 21.9108 147.291 21.4117C147.832 20.9145 148.55 20.664 149.442 20.664C150.134 20.664 150.739 20.8547 151.258 21.2322C151.781 21.6061 152.043 22.0285 152.043 22.4958C152.043 22.7407 151.965 22.9631 151.81 23.1613C151.654 23.3557 151.478 23.4529 151.28 23.4529C151.004 23.4529 150.815 23.3407 150.713 23.1164C150.615 22.8921 150.568 22.6379 150.568 22.3538C150.568 21.9407 150.506 21.6042 150.386 21.3444C150.27 21.0808 149.945 20.9481 149.413 20.9481C148.85 20.9481 148.446 21.1238 148.199 21.4715C147.952 21.8154 147.829 22.1108 147.829 22.3538C147.829 22.7332 147.983 23.0678 148.294 23.3557C148.603 23.6454 148.991 23.9164 149.456 24.1706C149.921 24.4249 150.381 24.6996 150.837 24.9931C151.291 25.2828 151.674 25.6137 151.985 25.9875C152.293 26.3614 152.45 26.8137 152.45 27.3408C152.45 27.8848 152.33 28.3353 152.094 28.6941C151.861 29.0493 151.571 29.3259 151.222 29.5241C150.873 29.7185 150.521 29.8568 150.168 29.9428C149.814 30.0269 149.509 30.0699 149.253 30.0699Z" fill="#A41212"/>
<path d="M41.778 65.462C40.5229 64.9236 39.7654 64.1143 39.5039 63.032C40.917 62.5796 42.114 61.8207 43.093 60.759C44.0757 59.6936 44.5679 58.3496 44.5679 56.729C44.5679 55.9514 44.4226 55.2467 44.132 54.6131C43.845 53.9813 43.4417 53.4354 42.9186 52.9756C42.3955 52.5177 41.7798 52.1606 41.0732 51.9064C40.3648 51.6485 39.5802 51.5176 38.7192 51.5176C37.4877 51.5176 36.3162 51.7083 35.2027 52.0859C34.0875 52.4653 33.1048 53.0111 32.253 53.7233C31.4047 54.4373 30.7236 55.3196 30.2114 56.3701C29.7028 57.4169 29.4485 58.6169 29.4485 59.9665C29.4485 61.1777 29.6755 62.2824 30.1315 63.2787C30.591 64.2769 31.2721 65.2059 32.173 66.0676C33.0776 66.9293 34.211 67.7574 35.5733 68.5499C36.9337 69.3425 38.5176 70.1294 40.3249 70.9126C40.3249 71.0472 40.2849 71.193 40.2086 71.3537C40.1305 71.5182 40.0524 71.6397 39.9761 71.7201C39.137 71.3949 38.227 71.0042 37.2443 70.5462C36.2599 70.092 35.2718 69.5686 34.28 68.9761C33.2865 68.3817 32.3256 67.7144 31.3956 66.9723C30.4657 66.234 29.6465 65.4059 28.9399 64.49C28.2315 63.5741 27.663 62.5684 27.2325 61.4768C26.8002 60.3852 26.5859 59.1945 26.5859 57.9029C26.5859 56.2879 26.9383 54.8747 27.6467 53.6635C28.3532 52.4485 29.2959 51.4784 30.4729 50.755C29.79 50.297 29.1869 49.7381 28.6638 49.0802C28.1407 48.4185 27.8792 47.682 27.8792 46.8745C27.8792 46.0128 28.1988 45.3399 28.8382 44.8558C29.4812 44.3679 30.2495 44.0165 31.1413 43.8015L38.0871 42.022C38.5848 41.8875 38.9971 41.7061 39.3222 41.4762C39.651 41.2482 39.8163 40.9061 39.8163 40.4519C39.8163 40.1285 39.7164 39.8388 39.5184 39.5846C39.3241 39.3266 39.0843 39.1958 38.7991 39.1958H24.0721C23.9667 39.1958 23.8287 39.136 23.6579 39.0163C23.489 38.893 23.3201 38.7304 23.1494 38.5303C22.9804 38.3266 22.8369 38.0892 22.7207 37.82C22.6008 37.5509 22.5391 37.2555 22.5391 36.9303H37.346C37.6839 36.9303 38.1416 37.1079 38.7192 37.4612C39.295 37.8107 39.8563 38.25 40.4048 38.7771C40.957 39.3005 41.4329 39.8594 41.8361 40.4519C42.243 41.0407 42.4464 41.579 42.4464 42.0669C42.4464 42.7398 42.1885 43.2595 41.6762 43.6221C41.1677 43.9866 40.5737 44.2483 39.8962 44.4072L32.9432 46.1866C32.2639 46.3773 31.6881 46.6409 31.214 46.9792C30.7436 47.3138 30.5093 47.8166 30.5093 48.4895C30.5093 49.1886 30.7708 49.7811 31.2939 50.269C32.8142 49.4877 34.5161 49.0951 36.4015 49.0951C37.8147 49.0951 39.1697 49.4204 40.4629 50.0671C41.7598 50.7101 42.9132 51.5251 43.9213 52.5121C44.9275 53.4953 45.7322 54.5663 46.3334 55.7271C46.9328 56.8841 47.2343 57.9851 47.2343 59.0319C47.2343 59.7908 47.0836 60.5123 46.7839 61.2002C46.4823 61.8843 46.0827 62.5086 45.5851 63.0769C45.091 63.6414 44.517 64.1311 43.8631 64.5498C43.2093 64.9685 42.5136 65.2732 41.778 65.462ZM44.0157 39.1958C43.7832 39.1958 43.5743 39.1173 43.3909 38.9565C43.2056 38.792 43.0494 38.5902 42.9186 38.3509C42.7879 38.1079 42.6807 37.8574 42.599 37.6032C42.5209 37.3453 42.4827 37.121 42.4827 36.9303H49.2759C49.512 36.9303 49.7227 37.0125 49.908 37.177C50.0914 37.3378 50.2495 37.5397 50.3802 37.7827C50.511 38.0275 50.6146 38.2761 50.6927 38.5303C50.7689 38.7846 50.8089 39.007 50.8089 39.1958H44.0157Z" fill="#A41212"/>
<path d="M33.5707 29.8198C32.4191 29.8198 31.431 29.9694 30.6064 30.2685C29.7836 30.5638 28.9789 30.9264 28.1943 31.3601C27.8019 31.0068 27.4496 30.5956 27.1335 30.1264C26.8193 29.6535 26.6086 29.188 26.5014 28.7282C27.2625 28.2759 28.0762 27.9207 28.9426 27.6665C29.8054 27.4086 30.6936 27.2777 31.609 27.2777C33.3346 27.2777 34.8113 27.7226 36.0409 28.6086C37.2724 29.4965 38.3205 30.6685 39.1869 32.1227C38.4022 29.6759 37.3687 27.7917 36.0845 26.4702C34.8022 25.1505 33.2183 24.4888 31.3329 24.4888C30.0796 24.4888 29.0007 24.6309 28.0998 24.915C27.1953 25.1954 26.2962 25.5356 25.4043 25.9394C25.012 25.6216 24.6596 25.2048 24.3436 24.6907C24.0293 24.1786 23.8205 23.6926 23.7188 23.2327C24.4744 22.829 25.3135 22.5075 26.2326 22.2682C27.148 22.0252 28.1143 21.9019 29.1315 21.9019C30.7299 21.9019 32.1975 22.2607 33.5344 22.9785C34.8676 23.6926 36.0373 24.6945 37.0436 25.9842C38.0517 27.2758 38.9035 28.8236 39.601 30.6273C40.2949 32.433 40.8216 34.4256 41.1849 36.6088C41.1377 36.6649 41.0396 36.7191 40.8943 36.7733C40.749 36.8294 40.5601 36.8556 40.3276 36.8556C40.0914 35.8593 39.7954 34.9377 39.4412 34.0891C39.0888 33.2368 38.642 32.4947 38.1043 31.861C37.5667 31.2292 36.9328 30.7301 36.2008 30.3657C35.4706 30.003 34.5933 29.8198 33.5707 29.8198Z" fill="#A41212"/>
<path d="M74.9167 46.4708C74.4698 46.6614 74.1029 46.882 73.8123 47.1362C73.5253 47.3904 73.3837 47.7082 73.3837 48.0858C73.3837 48.411 73.4872 48.6951 73.6961 48.9381C73.9086 49.1774 74.1974 49.297 74.5607 49.297C74.7968 49.297 75.0511 49.2578 75.3235 49.1774C75.5996 49.0989 75.8557 49.0035 76.0937 48.8933L79.8208 47.3605C80.1115 47.2259 80.4384 47.1194 80.8017 47.039C81.1686 46.9549 81.5101 46.9119 81.8261 46.9119C82.2947 46.9119 82.9958 47.1624 83.9258 47.6596C84.8558 48.1587 85.7894 48.8391 86.7303 49.7008C87.6748 50.5643 88.4921 51.5756 89.186 52.7364C89.878 53.8934 90.225 55.1177 90.225 56.4075C90.225 57.5402 89.9943 58.6319 89.5347 59.6824C89.0788 60.7347 88.4322 61.6637 87.5949 62.4712C86.7557 63.2787 85.7222 63.9255 84.4925 64.4077C83.261 64.8919 81.8879 65.133 80.373 65.133C79.167 65.133 77.979 64.9199 76.8129 64.49C75.6505 64.0563 74.557 63.4507 73.5362 62.6731C72.5191 61.8918 71.5982 60.9684 70.7754 59.9067C69.9507 58.8412 69.275 57.6748 68.7483 56.4075C68.9608 56.1944 69.1988 56.086 69.4603 56.086C69.9544 57.1085 70.5356 58.0375 71.204 58.8749C71.8724 59.7085 72.599 60.4151 73.3837 60.9983C74.1683 61.5777 74.9984 62.0282 75.8757 62.3516C76.7512 62.6712 77.6358 62.8301 78.5276 62.8301C79.6501 62.8301 80.7436 62.6432 81.8043 62.2693C82.8651 61.8918 83.8132 61.346 84.6524 60.6319C85.4897 59.9197 86.1636 59.0524 86.6722 58.03C87.1844 57.0038 87.4423 55.8449 87.4423 54.5532C87.4423 53.0186 87.0936 51.7644 86.3961 50.7924C85.7022 49.8204 84.7831 49.3344 83.6352 49.3344C83.0285 49.3344 82.3874 49.469 81.7099 49.7381L77.9754 51.2335C77.7139 51.3438 77.445 51.4391 77.169 51.5176C76.8965 51.598 76.5913 51.6373 76.2535 51.6373C75.9375 51.6373 75.596 51.5513 75.2291 51.3756C74.8604 51.2017 74.4807 50.9756 74.0884 50.6952C73.6961 50.4111 73.311 50.0952 72.9332 49.7456C72.5554 49.3923 72.2212 49.0278 71.9306 48.654C70.8299 48.0858 69.4494 47.5736 67.7893 47.1138C66.1273 46.6558 64.1438 46.4147 61.8389 46.3885C62.4146 46.6839 62.9577 47.0876 63.4663 47.5998C63.9785 48.1138 64.4326 48.6802 64.825 49.297C65.2173 49.9157 65.5243 50.5756 65.7477 51.2784C65.9693 51.9775 66.0819 52.6616 66.0819 53.3345C66.0819 54.3626 65.9039 55.2673 65.5515 56.0486C65.1973 56.8262 64.7251 57.4842 64.1347 58.0225C63.5481 58.5608 62.8742 58.9646 62.1149 59.2337C61.3539 59.5029 60.5692 59.6375 59.7609 59.6375C58.8455 59.6375 57.8501 59.3889 56.7748 58.8898C55.7032 58.3926 54.7078 57.7346 53.7887 56.9159C52.8733 56.0935 52.1068 55.1645 51.4929 54.1271C50.8771 53.0915 50.5702 52.0466 50.5702 50.9943C50.5702 49.9438 50.7918 48.9867 51.2386 48.1231C51.6836 47.2614 52.3102 46.5287 53.1203 45.925C53.9341 45.3175 54.9022 44.8464 56.0265 44.5118C57.1545 44.1735 58.3878 44.0034 59.7246 44.0034C62.0241 44.0034 64.1238 44.3156 66.0238 44.938C67.9219 45.5567 69.5766 46.2539 70.9861 47.0315C70.937 46.7624 70.9134 46.5754 70.9134 46.4708C70.9134 45.9324 71.1096 45.4745 71.5019 45.095C71.8942 44.7174 72.4282 44.381 73.1076 44.0856L78.8037 41.6183C79.2196 41.4295 79.552 41.2276 79.799 41.0127C80.0497 40.7996 80.1768 40.5173 80.1768 40.1678C80.1768 39.8986 80.0969 39.6706 79.9371 39.4799C79.7809 39.2911 79.5883 39.1958 79.3559 39.1958H48.8482C48.6121 39.1958 48.4014 39.1173 48.2162 38.9565C48.0327 38.792 47.8747 38.5902 47.7439 38.3509C47.6131 38.1079 47.5169 37.8574 47.4533 37.6032C47.3861 37.3453 47.3516 37.121 47.3516 36.9303H77.9028C78.2115 36.9303 78.6402 37.1004 79.1887 37.4387C79.7409 37.7733 80.2858 38.1901 80.8235 38.6874C81.3611 39.1864 81.8261 39.7192 82.2184 40.2874C82.6108 40.8519 82.8069 41.3491 82.8069 41.7828C82.8069 42.2968 82.5908 42.7286 82.1603 43.0763C81.728 43.4258 81.2104 43.7342 80.6055 44.0034L74.9167 46.4708ZM63.3719 51.1587C63.3719 50.755 63.3174 50.3326 63.212 49.8877C63.1103 49.4391 62.9523 49.0017 62.7398 48.5718C62.5309 48.1381 62.2621 47.7343 61.9333 47.3605C61.6082 46.9829 61.2231 46.6708 60.7781 46.4259C59.7319 46.5119 58.7547 46.7231 57.8501 47.0614C56.9492 47.396 56.1718 47.8465 55.5179 48.4147C54.864 48.9792 54.3446 49.6522 53.9631 50.4335C53.5853 51.2111 53.3964 52.0709 53.3964 53.013C53.3964 54.3887 53.7815 55.4542 54.5516 56.2056C55.3254 56.9589 56.3171 57.3346 57.5232 57.3346C58.3841 57.3346 59.1688 57.1814 59.8772 56.8711C60.5838 56.5626 61.1995 56.1346 61.7226 55.585C62.2457 55.0318 62.649 54.3794 62.9359 53.6261C63.2266 52.8691 63.3719 52.0466 63.3719 51.1587ZM84.5361 39.1958C84.2982 39.1958 84.0875 39.1173 83.904 38.9565C83.7242 38.792 83.5698 38.5902 83.439 38.3509C83.3083 38.1079 83.2011 37.8574 83.1194 37.6032C83.0412 37.3453 83.0031 37.121 83.0031 36.9303H92.1939C92.4264 36.9303 92.6335 37.0125 92.8187 37.177C93.0022 37.3378 93.1602 37.5397 93.291 37.7827C93.4218 38.0275 93.5253 38.2761 93.6034 38.5303C93.6797 38.7846 93.7196 39.007 93.7196 39.1958H84.5361Z" fill="#A41212"/>
<path d="M80.6853 70.1427C79.6936 70.1427 78.8544 70.2213 78.1715 70.382C77.4885 70.5465 76.8092 70.7372 76.1299 70.9577C75.7375 70.6026 75.4033 70.1764 75.1273 69.6792C74.8512 69.1801 74.6623 68.7016 74.5605 68.2436C75.1618 68.0287 75.7702 67.8623 76.3842 67.7427C76.9999 67.623 77.6738 67.5632 78.404 67.5632C79.7408 67.5632 80.9741 67.7894 82.1021 68.2436C83.2264 68.7016 84.2654 69.3016 85.219 70.0455C86.1744 70.7876 87.0571 71.6419 87.8708 72.6101C88.6791 73.5821 89.4511 74.5784 90.1885 75.6008C90.0577 75.8943 89.847 76.042 89.5564 76.042C88.8771 75.1784 88.2305 74.384 87.6166 73.6569C87.0026 72.9335 86.3596 72.3073 85.6912 71.7802C85.0228 71.2568 84.2853 70.853 83.4752 70.5689C82.6615 70.2848 81.7315 70.1427 80.6853 70.1427Z" fill="#A41212"/>
<path d="M121.91 39.1958V65.5816C121.387 65.5816 120.875 65.4863 120.377 65.2975C119.878 65.1087 119.447 64.7853 119.084 64.3255V49.1774L108.048 57.4617C107.525 57.243 107.071 56.8991 106.689 56.4299C106.311 55.957 106.057 55.5589 105.926 55.2336L111.266 51.2335C110.689 49.8335 109.851 48.7568 108.753 48.0035C107.657 47.2521 106.429 46.8745 105.069 46.8745C104.07 46.8745 103.118 47.0577 102.214 47.4203C101.313 47.7848 100.521 48.3232 99.8378 49.0353C99.1585 49.7494 98.61 50.6391 98.1886 51.7046C97.7708 52.7663 97.5637 54.0112 97.5637 55.4355C97.5637 56.6524 97.7199 57.7459 98.036 58.7178C98.3502 59.6861 98.8152 60.5871 99.431 61.4245C100.045 62.2581 100.811 63.0451 101.727 63.7871C102.642 64.5255 103.689 65.2582 104.866 65.9853C104.816 66.2788 104.673 66.5087 104.437 66.6732C103.521 66.1835 102.499 65.5442 101.371 64.7517C100.247 63.9591 99.193 63.0096 98.2104 61.903C97.2313 60.7964 96.4013 59.5384 95.7183 58.1272C95.039 56.7122 94.7011 55.129 94.7011 53.3794C94.7011 51.9251 94.9282 50.6316 95.3841 49.4989C95.8436 48.368 96.4667 47.4185 97.2513 46.6502C98.036 45.8838 98.9315 45.3044 99.9395 44.9156C100.946 44.523 101.999 44.3249 103.1 44.3249C105.352 44.3249 107.223 44.9193 108.716 46.1044C110.207 47.2913 111.346 48.7867 112.131 50.5905L119.084 45.3343V39.1958H92.1873C91.9512 39.1958 91.7423 39.1173 91.5625 38.9565C91.379 38.792 91.221 38.5902 91.0902 38.3509C90.9594 38.1079 90.8559 37.8574 90.7778 37.6032C90.6961 37.3453 90.6543 37.121 90.6543 36.9303H126.306C126.542 36.9303 126.751 37.0125 126.931 37.177C127.114 37.3378 127.272 37.5397 127.403 37.7827C127.534 38.0275 127.637 38.2761 127.715 38.5303C127.797 38.7846 127.839 39.007 127.839 39.1958H121.91Z" fill="#A41212"/>
<path d="M109.811 71.922C109.811 71.0883 109.989 70.3294 110.341 69.6416C110.695 68.9537 111.187 68.3668 111.816 67.8845C112.446 67.4004 113.18 67.0247 114.017 66.7555C114.851 66.4863 115.766 66.3517 116.764 66.3517C118.228 66.3517 119.568 66.606 120.789 67.1144C122.006 67.6265 123.157 68.4079 124.247 69.4546C125.333 70.5051 126.372 71.8398 127.364 73.4548C128.356 75.0735 129.364 76.9876 130.386 79.197C130.279 79.4101 130.148 79.5372 129.994 79.5783C129.838 79.6176 129.682 79.6381 129.522 79.6381C128.659 77.7539 127.802 76.124 126.95 74.7483C126.098 73.3762 125.228 72.2454 124.341 71.3538C123.451 70.4659 122.529 69.8061 121.573 69.3724C120.62 68.9425 119.604 68.7294 118.529 68.7294C117.614 68.7294 116.776 68.8714 116.015 69.1556C115.256 69.4397 114.613 69.8229 114.09 70.307C113.567 70.7893 113.164 71.3556 112.877 72.0042C112.586 72.651 112.441 73.3389 112.441 74.0679C112.441 75.1987 112.829 76.0941 113.603 76.752C114.373 77.41 115.347 77.739 116.524 77.739C117.416 77.739 118.268 77.5016 119.081 77.0287C119.891 76.5595 120.505 75.9894 120.927 75.3165C121.421 75.481 121.898 75.7371 122.358 76.0866C122.814 76.4343 123.186 76.8268 123.477 77.2605C123.032 78.0923 122.385 78.7428 121.537 79.2119C120.685 79.6848 119.761 79.9222 118.762 79.9222C117.793 79.9222 116.782 79.6643 115.725 79.1521C114.664 78.6437 113.696 77.9969 112.818 77.2156C111.943 76.4324 111.224 75.5707 110.661 74.6286C110.094 73.6865 109.811 72.7837 109.811 71.922Z" fill="#A41212"/>
<path d="M137.179 61.6637C136.34 61.6637 135.41 61.4151 134.389 60.916C133.367 60.4188 132.398 59.7571 131.483 58.9347C130.568 58.1122 129.801 57.1832 129.187 56.1458C128.571 55.1103 128.264 54.0654 128.264 53.013C128.264 51.9625 128.468 51.0073 128.875 50.1494C129.282 49.2877 129.857 48.5531 130.604 47.9437C131.349 47.3362 132.231 46.8652 133.249 46.5306C134.269 46.1922 135.395 46.0221 136.627 46.0221C137.886 46.0221 139.17 46.1717 140.478 46.4708V39.1958H126.695C126.459 39.1958 126.25 39.1173 126.07 38.9565C125.887 38.792 125.729 38.5902 125.598 38.3509C125.467 38.1079 125.364 37.8574 125.286 37.6032C125.204 37.3453 125.162 37.121 125.162 36.9303H159.164C159.401 36.9303 159.609 37.0125 159.789 37.177C159.973 37.3378 160.131 37.5397 160.261 37.7827C160.392 38.0275 160.496 38.2761 160.574 38.5303C160.656 38.7846 160.697 39.007 160.697 39.1958H154.769V65.5816C154.246 65.5816 153.733 65.4863 153.236 65.2975C152.736 65.1087 152.306 64.7853 151.943 64.3255V58.8749C151.943 57.7982 151.739 56.7496 151.332 55.7271C150.925 54.7009 150.348 53.7513 149.603 52.8784C148.857 52.0018 147.954 51.2335 146.893 50.5756C145.832 49.9139 144.635 49.3923 143.304 49.0129V54.3065C143.304 55.3589 143.177 56.3365 142.926 57.2374C142.679 58.1403 142.305 58.9235 141.807 59.5852C141.313 60.2431 140.677 60.7553 139.904 61.1179C139.134 61.4824 138.225 61.6637 137.179 61.6637ZM143.304 47.3156C145.057 48.0185 146.671 48.9363 148.15 50.0671C149.632 51.1999 150.896 52.4896 151.943 53.9401V39.1958H143.304V47.3156ZM135.138 59.3609C136.028 59.3609 136.812 59.2001 137.492 58.8749C138.175 58.5515 138.73 58.1122 139.163 57.5589C139.593 57.0056 139.92 56.3608 140.143 55.6224C140.365 54.8804 140.478 54.0934 140.478 53.2597V48.4895C140.187 48.4652 139.884 48.4446 139.569 48.4297C139.259 48.4147 138.946 48.4073 138.632 48.4073C137.586 48.4073 136.602 48.5624 135.682 48.8708C134.767 49.1811 133.968 49.6185 133.285 50.1868C132.606 50.7513 132.072 51.4429 131.679 52.2653C131.287 53.0878 131.091 54.0112 131.091 55.0318C131.091 56.4075 131.463 57.4748 132.21 58.2318C132.954 58.9851 133.932 59.3609 135.138 59.3609Z" fill="#A41212"/>
</svg>
